<svg width="232" height="232" viewBox="0 0 232 232" fill="none" xmlns="http://www.w3.org/2000/svg">
<g clip-path="url(#clip0_1740_32357)">
<path d="M42.0063 91.0186H21V141.256L42.0063 91.0186Z" fill="black"/>
<path d="M56.7865 91.0186H77.7654V141.256L56.7865 91.0186Z" fill="black"/>
<path d="M49.396 109.534L62.7662 141.256H53.9942L49.9982 131.156H40.2135L49.396 109.534Z" fill="black"/>
<path d="M112.035 122.966L114.512 130.068C114.594 130.246 114.717 130.328 114.936 130.328H119.699C119.959 130.328 120 130.205 119.959 129.945L110.119 102.616C110.078 102.398 110.037 102.356 109.818 102.356H103.906C103.742 102.356 103.646 102.48 103.646 102.658C103.564 104.094 103.441 104.532 103.263 104.957L94.491 129.904C94.4499 130.205 94.5458 130.328 94.7921 130.328H99.0481C99.3081 130.328 99.4312 130.246 99.527 129.986L101.867 122.966H112.035ZM103.222 118.327C104.508 114.44 106.205 109.459 106.89 106.612H106.931C107.779 109.596 109.777 115.508 110.68 118.327H103.222Z" fill="black"/>
<path d="M132.608 130.752C135.167 130.752 137.89 130.287 140.655 129.096C140.874 129.014 140.915 128.918 140.915 128.713C140.833 127.946 140.737 126.838 140.737 125.99V100.262C140.737 100.098 140.737 100.016 140.532 100.016H135.892C135.714 100.016 135.632 100.098 135.632 100.317V109.034C134.907 108.952 134.401 108.911 133.799 108.911C126.313 108.911 121.715 113.851 121.715 120.023C121.715 127.18 126.436 130.752 132.608 130.752ZM135.632 125.99C134.866 126.236 134.018 126.332 133.155 126.332C129.762 126.332 126.984 124.416 126.984 119.763C126.984 115.644 129.844 113.208 133.634 113.208C134.401 113.208 135.071 113.29 135.632 113.509V125.99Z" fill="black"/>
<path d="M155.714 108.911C149.324 108.911 145.369 113.81 145.369 119.859C145.369 125.265 148.516 130.752 155.619 130.752C161.626 130.752 165.841 126.332 165.841 119.722C165.841 113.892 162.269 108.911 155.714 108.911ZM155.454 113.208C159.067 113.208 160.6 116.315 160.6 119.859C160.6 124.238 158.342 126.414 155.714 126.414C152.471 126.414 150.555 123.691 150.555 119.763C150.555 115.726 152.594 113.208 155.454 113.208Z" fill="black"/>
<path d="M170.637 100.016C170.459 100.016 170.336 100.098 170.336 100.317V129.438C170.336 129.561 170.459 129.78 170.637 129.821C172.676 130.451 174.811 130.752 177.014 130.752C183.323 130.752 189.454 126.838 189.454 118.955C189.454 113.249 185.54 108.911 179.409 108.911C177.999 108.911 176.686 109.13 175.536 109.513L175.481 100.358C175.481 100.057 175.399 100.016 175.098 100.016H170.637ZM184.212 119.476C184.212 124.197 180.983 126.414 177.493 126.414C176.768 126.414 176.125 126.373 175.536 126.195V113.769C176.207 113.509 177.014 113.29 178.506 113.29C181.872 113.29 184.212 115.425 184.212 119.476Z" fill="black"/>
<path d="M206.768 121.009C208.848 121.009 210.558 120.968 211.147 120.831C211.366 120.79 211.448 120.707 211.489 120.53C211.612 120.064 211.667 119.093 211.667 117.902C211.667 113.851 209.231 108.911 202.936 108.911C196.504 108.911 192.932 114.152 192.932 120.064C192.932 125.306 195.697 130.752 203.442 130.752C206.343 130.752 208.218 130.287 209.833 129.521C209.997 129.438 210.079 129.302 210.079 129.055V125.511C210.079 125.306 209.956 125.265 209.833 125.347C208.218 126.031 206.467 126.373 204.551 126.373C200.213 126.373 198.242 123.978 198.119 121.009H206.768ZM198.119 117.341C198.461 115.261 199.775 113.003 202.717 113.003C205.96 113.003 206.809 115.726 206.809 116.958C206.809 116.999 206.809 117.177 206.809 117.3C206.631 117.341 206.083 117.341 204.469 117.341H198.119Z" fill="black"/>
</g>
<defs>
<clipPath id="clip0_1740_32357">
<rect width="190.667" height="50.2734" fill="white" transform="translate(21 91)"/>
</clipPath>
</defs>
</svg>
