<svg width="232" height="232" viewBox="0 0 232 232" fill="none" xmlns="http://www.w3.org/2000/svg">
<g clip-path="url(#clip0_1740_32372)">
<path d="M65.1083 116.824C65.1083 129.034 55.2352 138.934 43.0546 138.934C30.8742 138.934 21 129.034 21 116.824C21 104.613 30.8742 94.7136 43.0546 94.7136C55.2352 94.7136 65.1083 104.613 65.1083 116.824Z" fill="black"/>
<path d="M22.9102 108.798L52.5771 97.0374L26.574 112.099L54.5636 101.581L28.2972 115.869L56.3995 105.597L30.1712 119.967L58.2878 109.727L32.2014 124.191L60.0321 113.54L34.0752 128.29L62.0105 117.868L35.9119 132.306L63.8586 121.621L36.1152 137.565L22.9102 108.798Z" fill="white"/>
<path d="M104.305 94.0021L105.27 108.693H104.305C102.995 104.28 101.126 101.105 98.6991 99.1644C96.2691 97.2242 93.3554 96.2541 89.9558 96.2541C87.1039 96.2541 84.5287 96.9796 82.2264 98.4273C79.9244 99.8748 78.1146 102.186 76.7943 105.356C75.474 108.526 74.8155 112.468 74.8155 117.183C74.8155 121.074 75.437 124.445 76.6821 127.299C77.9254 130.154 79.7986 132.342 82.2984 133.863C84.7985 135.385 87.6502 136.146 90.857 136.146C93.642 136.146 96.0984 135.549 98.2295 134.356C100.359 133.163 102.7 130.794 105.254 127.245L106.236 127.888C104.079 131.709 101.564 134.503 98.6889 136.276C95.8131 138.047 92.4006 138.934 88.4493 138.934C81.3249 138.934 75.8089 136.293 71.8983 131.012C68.9814 127.084 67.5234 122.458 67.5234 117.133C67.5234 112.845 68.4835 108.906 70.4054 105.314C72.3274 101.723 74.973 98.9399 78.3407 96.9646C81.7087 94.9907 85.3882 94.0021 89.3791 94.0021C92.4826 94.0021 95.5454 94.7694 98.5649 96.3025C99.4512 96.7718 100.084 97.0047 100.465 97.0047C101.034 97.0047 101.53 96.8036 101.954 96.3981C102.503 95.8234 102.893 95.0241 103.125 94.0021H104.305Z" fill="black"/>
<path d="M107.582 94.9667H119.25L145.637 127.156V102.366C145.637 99.7487 145.339 98.115 144.745 97.4649C143.96 96.5872 142.718 96.1465 141.02 96.1465H139.524V94.9667H154.537V96.1465H153.009C151.183 96.1465 149.89 96.6909 149.125 97.7799C148.658 98.4504 148.425 99.9801 148.425 102.366V138.665H147.284L118.828 104.04V130.569C118.828 133.186 119.114 134.82 119.688 135.47C120.493 136.349 121.735 136.788 123.413 136.788H124.941V137.968H109.927V136.788H111.423C113.27 136.788 114.576 136.244 115.339 135.155C115.806 134.485 116.04 132.956 116.04 130.569V100.65C114.793 99.1825 113.847 98.214 113.203 97.745C112.56 97.2756 111.615 96.84 110.368 96.4347C109.755 96.2436 108.827 96.1465 107.582 96.1465V94.9667Z" fill="black"/>
<path d="M184.893 94.0021V108.693H183.713C183.334 105.89 182.656 103.658 181.677 101.996C180.698 100.336 179.304 99.017 177.495 98.0403C175.685 97.0648 173.812 96.5757 171.878 96.5757C169.69 96.5757 167.88 97.2459 166.45 98.5863C165.019 99.927 164.303 101.452 164.303 103.161C164.303 104.471 164.756 105.664 165.661 106.74C166.964 108.323 170.069 110.434 174.972 113.071C178.97 115.225 181.706 116.877 183.184 118.026C184.66 119.176 185.795 120.531 186.593 122.093C187.389 123.654 187.787 125.291 187.787 127C187.787 130.251 186.528 133.053 184.008 135.405C181.488 137.757 178.245 138.934 174.283 138.934C173.038 138.934 171.867 138.836 170.771 138.645C170.117 138.538 168.762 138.148 166.706 137.476C164.65 136.804 163.349 136.467 162.8 136.467C162.275 136.467 161.857 136.628 161.552 136.948C161.245 137.27 161.019 137.932 160.872 138.934H159.692V124.242H160.872C161.418 127.317 162.155 129.617 163.08 131.144C164.005 132.672 165.421 133.94 167.324 134.951C169.228 135.963 171.314 136.467 173.586 136.467C176.214 136.467 178.293 135.772 179.817 134.378C181.342 132.984 182.104 131.337 182.104 129.435C182.104 128.379 181.814 127.314 181.236 126.236C180.658 125.161 179.76 124.157 178.541 123.227C177.719 122.593 175.477 121.252 171.815 119.197C168.15 117.145 165.543 115.504 163.994 114.278C162.442 113.052 161.266 111.698 160.465 110.216C159.664 108.735 159.263 107.107 159.263 105.329C159.263 102.243 160.441 99.5816 162.8 97.3499C165.16 95.118 168.16 94.0021 171.805 94.0021C174.079 94.0021 176.49 94.5617 179.038 95.6776C180.218 96.2054 181.049 96.4685 181.533 96.4685C182.079 96.4685 182.526 96.306 182.875 95.9794C183.222 95.6524 183.502 94.9942 183.713 94.0021H184.893Z" fill="black"/>
<path d="M211.325 136.789V137.969H192.988V136.789H194.501C196.264 136.789 197.545 136.272 198.345 135.236C198.848 134.561 199.1 132.934 199.1 130.355V102.581C199.1 100.406 198.963 98.9688 198.692 98.2699C198.48 97.7421 198.05 97.2879 197.4 96.9076C196.475 96.4018 195.508 96.1471 194.501 96.1471H192.988V94.9674H211.325V96.1471H209.788C208.054 96.1471 206.791 96.6649 205.997 97.7003C205.474 98.3771 205.212 100.004 205.212 102.581V130.355C205.212 132.531 205.349 133.969 205.62 134.666C205.828 135.196 206.267 135.65 206.937 136.028C207.835 136.536 208.785 136.789 209.788 136.789H211.325Z" fill="black"/>
</g>
<defs>
<clipPath id="clip0_1740_32372">
<rect width="190.329" height="44.9327" fill="white" transform="translate(21 94)"/>
</clipPath>
</defs>
</svg>
