<svg width="232" height="232" viewBox="0 0 232 232" fill="none" xmlns="http://www.w3.org/2000/svg">
<g clip-path="url(#clip0_1740_32359)">
<mask id="mask0_1740_32359" style="mask-type:luminance" maskUnits="userSpaceOnUse" x="15" y="103" width="202" height="26">
<path d="M15 103H216.761V128.333H15V103Z" fill="white"/>
</mask>
<g mask="url(#mask0_1740_32359)">
<path fill-rule="evenodd" clip-rule="evenodd" d="M48.5141 109.033C47.6048 109.416 46.7828 109.98 46.0979 110.69C45.4236 111.398 44.8892 112.226 44.5231 113.132C44.1413 114.081 43.9491 115.095 43.9573 116.118V116.16C43.9494 117.186 44.1416 118.204 44.5231 119.156C44.8848 120.06 45.4198 120.885 46.0979 121.584C46.7813 122.278 47.5953 122.831 48.493 123.209C49.4432 123.611 50.4656 123.813 51.4971 123.804C52.1461 123.81 52.7941 123.75 53.4309 123.624C53.9781 123.513 54.5097 123.336 55.0142 123.096C55.4897 122.868 55.9379 122.586 56.3506 122.257C56.7691 121.919 57.1618 121.549 57.5254 121.152L55.4671 119.048C54.9473 119.548 54.3642 119.977 53.7328 120.325C53.0714 120.654 52.3388 120.813 51.6006 120.79C51.0027 120.798 50.4108 120.671 49.8684 120.42C49.3526 120.182 48.8915 119.84 48.5141 119.416C48.1373 118.977 47.8433 118.473 47.6464 117.929C47.4331 117.351 47.3259 116.74 47.3298 116.123V116.08C47.3254 115.468 47.4327 114.86 47.6464 114.286C47.8464 113.743 48.1456 113.242 48.5289 112.808C48.9131 112.375 49.3856 112.03 49.9146 111.796C50.4436 111.561 51.0167 111.443 51.5953 111.449C52.2895 111.439 52.9765 111.591 53.6008 111.895C54.2401 112.223 54.8308 112.639 55.3562 113.129L57.4146 110.727C57.0784 110.384 56.714 110.069 56.3252 109.787C55.9256 109.5 55.4955 109.258 55.0427 109.065C54.5469 108.855 54.0303 108.698 53.5016 108.596C52.8806 108.478 52.2495 108.421 51.6174 108.426C50.5524 108.415 49.4964 108.621 48.5141 109.033ZM64.8636 109.033C63.9486 109.419 63.1196 109.983 62.4253 110.693C61.0122 112.145 60.228 114.095 60.2424 116.121V116.164C60.2343 117.187 60.4283 118.202 60.8134 119.15C61.1765 120.054 61.717 120.877 62.4031 121.57C63.0985 122.268 63.9231 122.824 64.8309 123.206C66.8084 124.015 69.0242 124.015 71.0017 123.206C71.918 122.824 72.748 122.261 73.4421 121.551C74.8519 120.097 75.6346 118.148 75.6218 116.122V116.079C75.6291 115.056 75.4358 114.042 75.0529 113.094C74.6898 112.189 74.1493 111.366 73.4632 110.673C72.7413 109.948 71.8814 109.376 70.9344 108.991C69.9873 108.605 68.9725 108.414 67.9501 108.427C66.89 108.417 65.8387 108.622 64.8604 109.03M66.1841 120.422C65.6596 120.179 65.1882 119.835 64.7971 119.409C64.4006 118.978 64.0916 118.473 63.8872 117.924C63.6746 117.346 63.5674 116.734 63.5706 116.117V116.075C63.5666 115.462 63.6739 114.854 63.8872 114.28C64.0922 113.738 64.394 113.237 64.7781 112.803C65.1578 112.378 65.6224 112.038 66.1419 111.805C66.6982 111.558 67.3013 111.434 67.9099 111.442C68.516 111.437 69.1158 111.565 69.6674 111.816C70.1934 112.056 70.6669 112.398 71.0608 112.822C71.4586 113.254 71.7674 113.76 71.9696 114.312C72.1843 114.889 72.2916 115.5 72.2863 116.116V116.159C72.2924 116.772 72.1851 117.38 71.9696 117.954C71.7676 118.497 71.4662 118.998 71.0808 119.432C70.7002 119.858 70.2322 120.198 69.7086 120.427C69.1552 120.672 68.5554 120.796 67.9501 120.789C67.341 120.798 66.7376 120.671 66.1831 120.42L66.1841 120.422ZM79.2382 108.427V123.808H90.0956V120.753H82.5621V108.427H79.2382ZM96.525 109.03C95.6095 109.415 94.7802 109.979 94.0856 110.689C92.6732 112.142 91.89 114.092 91.9059 116.118V116.16C91.8978 117.183 92.0908 118.198 92.4738 119.147C92.8364 120.052 93.3778 120.875 94.0656 121.567C94.761 122.265 95.5856 122.82 96.4933 123.203C98.4716 124.011 100.688 124.011 102.666 123.203C103.582 122.82 104.412 122.257 105.107 121.548C106.517 120.094 107.299 118.144 107.285 116.119V116.076C107.292 115.053 107.1 114.039 106.717 113.091C106.353 112.186 105.812 111.363 105.126 110.669C104.404 109.946 103.544 109.375 102.598 108.99C101.651 108.605 100.637 108.414 99.6157 108.428C98.5553 108.418 97.5038 108.622 96.525 109.03ZM97.8508 120.424C97.3267 120.18 96.8552 119.836 96.4627 119.411C96.0665 118.98 95.7581 118.476 95.5549 117.926C95.3409 117.348 95.2336 116.736 95.2383 116.119V116.077C95.2328 115.464 95.3402 114.856 95.5549 114.283C95.758 113.74 96.0588 113.239 96.4427 112.805C96.8234 112.38 97.2886 112.04 97.8086 111.805C98.3648 111.558 98.968 111.434 99.5766 111.442C100.183 111.437 100.783 111.564 101.335 111.816C101.861 112.056 102.335 112.398 102.729 112.822C103.127 113.254 103.436 113.76 103.638 114.312C103.854 114.889 103.961 115.5 103.955 116.116V116.159C103.962 116.772 103.854 117.38 103.638 117.954C103.436 118.497 103.135 118.998 102.751 119.432C102.37 119.857 101.902 120.197 101.378 120.427C100.825 120.672 100.225 120.796 99.6199 120.789C99.0112 120.798 98.4081 120.671 97.8539 120.42L97.8508 120.424ZM110.905 108.427V123.808H114.127V118.888H116.661L119.805 123.81H123.568L119.992 118.321C120.898 117.975 121.685 117.376 122.261 116.595C122.874 115.702 123.18 114.633 123.13 113.551V113.505C123.194 112.212 122.743 110.947 121.875 109.987C121.312 109.444 120.641 109.025 119.906 108.756C119.171 108.488 118.388 108.376 117.607 108.427H110.905ZM114.127 111.481H117.336C118.003 111.441 118.663 111.635 119.203 112.03C119.433 112.235 119.614 112.49 119.73 112.776C119.846 113.062 119.895 113.371 119.872 113.679V113.722C119.885 114.016 119.835 114.31 119.724 114.584C119.613 114.857 119.445 115.103 119.231 115.305C118.72 115.731 118.064 115.944 117.4 115.9H114.127V111.481ZM125.381 108.427V111.548H129.699V123.808H132.823V111.548H137.144V108.427H125.381ZM144.477 109.03C143.561 109.415 142.731 109.978 142.036 110.688C140.62 112.139 139.835 114.09 139.853 116.117V116.159C139.845 117.183 140.039 118.197 140.425 119.145C140.786 120.049 141.325 120.872 142.008 121.566C142.704 122.263 143.528 122.819 144.436 123.202C146.414 124.01 148.63 124.01 150.607 123.202C151.524 122.819 152.355 122.256 153.051 121.547C153.737 120.84 154.283 120.009 154.661 119.099C155.05 118.152 155.246 117.137 155.238 116.114V116.071C155.246 115.048 155.053 114.034 154.67 113.086C154.306 112.18 153.765 111.357 153.077 110.664C152.381 109.967 151.557 109.411 150.65 109.026C148.669 108.222 146.453 108.222 144.473 109.026M145.797 120.418C145.275 120.174 144.804 119.83 144.413 119.406C144.016 118.976 143.706 118.471 143.503 117.921C143.289 117.343 143.182 116.73 143.186 116.114V116.072C143.181 115.459 143.289 114.851 143.503 114.277C143.706 113.734 144.008 113.233 144.393 112.799C144.773 112.375 145.238 112.036 145.758 111.803C146.315 111.562 146.916 111.438 147.523 111.44C148.13 111.442 148.729 111.569 149.285 111.814C149.81 112.054 150.283 112.396 150.677 112.82C151.075 113.252 151.384 113.758 151.587 114.31C151.801 114.887 151.908 115.498 151.904 116.114V116.157C151.909 116.77 151.801 117.378 151.587 117.952C151.384 118.495 151.083 118.996 150.698 119.429C150.319 119.857 149.85 120.197 149.326 120.425C148.773 120.67 148.174 120.794 147.569 120.787C146.959 120.795 146.356 120.669 145.802 120.417L145.797 120.418ZM167.566 108.427L161.919 115.151V108.427H158.858V123.808H161.919V119.106L163.53 117.26L167.849 123.805H171.523L165.6 114.952L171.265 108.427H167.566ZM174.237 108.427V123.808H185.095V120.8H177.34V117.568H184.075V114.56H177.34V111.438H184.997V108.427H174.237ZM198.285 108.427V117.897L191.605 108.427H188.714V123.808H191.81V114.032L198.71 123.81H201.381V108.427H198.285ZM208.663 108.744C208.06 108.938 207.502 109.251 207.021 109.663C206.568 110.055 206.204 110.539 205.952 111.082C205.696 111.665 205.569 112.297 205.581 112.935V112.977C205.56 113.614 205.679 114.249 205.928 114.836C206.158 115.325 206.499 115.753 206.924 116.086C207.396 116.445 207.919 116.73 208.476 116.931C209.147 117.176 209.831 117.384 210.525 117.552C211.151 117.709 211.66 117.858 212.05 118C212.37 118.107 212.677 118.249 212.966 118.422C213.155 118.533 213.31 118.692 213.415 118.883C213.497 119.06 213.537 119.253 213.532 119.448V119.491C213.538 119.698 213.489 119.903 213.39 120.085C213.291 120.267 213.145 120.42 212.969 120.528C212.488 120.804 211.938 120.934 211.385 120.902C210.575 120.911 209.773 120.743 209.035 120.41C208.283 120.059 207.578 119.613 206.938 119.084L205.006 121.413C205.868 122.207 206.88 122.821 207.983 123.219C209.053 123.607 210.182 123.806 211.32 123.807C212.068 123.816 212.813 123.711 213.529 123.496C214.154 123.311 214.737 123.007 215.245 122.6C215.724 122.207 216.107 121.71 216.365 121.147C216.643 120.526 216.779 119.851 216.767 119.171V119.13C216.781 118.551 216.675 117.976 216.456 117.441C216.248 116.967 215.935 116.547 215.541 116.212C215.092 115.837 214.588 115.535 214.046 115.316C213.391 115.043 212.718 114.818 212.03 114.642C211.392 114.47 210.863 114.326 210.447 114.194C210.103 114.097 209.772 113.961 209.459 113.789C209.248 113.679 209.073 113.511 208.953 113.305C208.858 113.108 208.81 112.891 208.815 112.672V112.635C208.815 112.453 208.859 112.274 208.942 112.113C209.025 111.951 209.145 111.812 209.293 111.706C209.718 111.428 210.223 111.296 210.73 111.332C211.387 111.337 212.038 111.47 212.643 111.726C213.332 112.017 213.988 112.379 214.601 112.807L216.303 110.327C215.547 109.72 214.694 109.243 213.78 108.917C212.813 108.582 211.796 108.416 210.772 108.427C210.06 108.418 209.351 108.525 208.674 108.744" fill="black"/>
<path fill-rule="evenodd" clip-rule="evenodd" d="M23.144 116.12C23.1225 117.416 23.6164 118.668 24.5173 119.601C25.4181 120.534 26.6523 121.072 27.9489 121.095C28.7079 121.092 29.4551 120.907 30.1278 120.555C30.8005 120.204 31.3792 119.696 31.8154 119.075L39.8376 119.779C40.4772 117.464 40.5041 115.023 39.9157 112.694L31.8154 113.164C31.3792 112.542 30.8004 112.035 30.1275 111.683C29.4546 111.331 28.7071 111.146 27.9478 111.143C26.6512 111.167 25.4171 111.704 24.5165 112.637C23.6159 113.571 23.1222 114.823 23.144 116.12Z" fill="black"/>
<path fill-rule="evenodd" clip-rule="evenodd" d="M15 113.884H19.3531C19.7553 112.023 20.7818 110.356 22.2621 109.158C23.7424 107.961 25.5876 107.306 27.4914 107.302C29.0001 107.299 30.4809 107.709 31.7728 108.488L37.6184 108.111C36.1299 106.095 34.074 104.568 31.7134 103.727C29.3529 102.885 26.795 102.767 24.3667 103.386C21.9385 104.006 19.7502 105.336 18.0817 107.206C16.4132 109.076 15.3402 111.401 15 113.884ZM15.1267 118.185C15.6017 120.581 16.7626 122.786 18.4682 124.534C20.1739 126.282 22.3507 127.496 24.7338 128.029C27.1169 128.562 29.6036 128.391 31.8913 127.537C34.179 126.682 36.1691 125.182 37.6195 123.217L31.7992 122.823C30.7198 123.478 29.5054 123.879 28.2482 123.994C26.9909 124.11 25.7239 123.938 24.5431 123.491C23.3624 123.044 22.2989 122.334 21.4335 121.414C20.5681 120.495 19.9234 119.391 19.5484 118.185H15.1267Z" fill="black"/>
</g>
</g>
<defs>
<clipPath id="clip0_1740_32359">
<rect width="201.761" height="25.3333" fill="white" transform="translate(15 103)"/>
</clipPath>
</defs>
</svg>
