<svg width="232" height="232" viewBox="0 0 232 232" fill="none" xmlns="http://www.w3.org/2000/svg">
<g clip-path="url(#clip0_1740_32364)">
<path d="M36.5239 132.383V126.167C43.1204 126.167 48.1946 119.634 45.6892 112.72C44.7378 110.151 42.7081 108.09 40.1393 107.17C33.2256 104.665 26.6925 109.739 26.6925 116.335H20.4766C20.4766 105.838 30.6251 97.6558 41.6298 101.081C46.4504 102.571 50.2561 106.409 51.7466 111.198C55.1717 122.234 47.0212 132.383 36.5239 132.383Z" fill="black"/>
<path fill-rule="evenodd" clip-rule="evenodd" d="M36.5241 126.167H30.3398V119.982H36.5241V126.167Z" fill="black"/>
<path fill-rule="evenodd" clip-rule="evenodd" d="M30.3391 130.923H25.582V126.166H30.3391V130.923Z" fill="black"/>
<path fill-rule="evenodd" clip-rule="evenodd" d="M25.5819 126.165H21.5859V122.201H25.5819V126.165Z" fill="black"/>
<path d="M77.5619 109.579C75.7225 108.311 73.4391 107.645 70.7751 107.645H64.9714V126.07H70.7751C73.4391 126.07 75.7225 125.404 77.5619 124.041C78.5768 123.343 79.3696 122.328 79.9088 121.091C80.4479 119.854 80.7333 118.396 80.7333 116.746C80.7333 115.129 80.4479 113.67 79.9088 112.433C79.3696 111.228 78.5768 110.245 77.5619 109.579ZM68.3648 110.784H70.2043C72.234 110.784 73.9148 111.197 75.1834 111.958C76.5788 112.814 77.3082 114.431 77.3082 116.746C77.3082 119.157 76.5788 120.838 75.1834 121.757C73.9782 122.55 72.2974 122.962 70.236 122.962H68.3966V110.784H68.3648Z" fill="black"/>
<path d="M84.7929 107.423C84.222 107.423 83.7463 107.613 83.3658 107.994C82.9852 108.374 82.7632 108.85 82.7632 109.389C82.7632 109.96 82.9535 110.436 83.3658 110.816C83.7463 111.197 84.222 111.419 84.7929 111.419C85.3637 111.419 85.8394 111.229 86.22 110.816C86.6006 110.436 86.8226 109.928 86.8226 109.389C86.8226 108.818 86.6323 108.343 86.22 107.994C85.8394 107.613 85.332 107.423 84.7929 107.423Z" fill="black"/>
<path d="M86.3786 113.099H83.1121V126.101H86.3786V113.099Z" fill="black"/>
<path d="M98.2716 114.178C97.2884 113.29 96.1784 112.782 95.005 112.782C93.1973 112.782 91.7068 113.417 90.5333 114.622C89.3599 115.827 88.7891 117.412 88.7891 119.284C88.7891 121.123 89.3599 122.677 90.5333 123.946C91.7068 125.151 93.1973 125.785 95.005 125.785C96.2736 125.785 97.3519 125.436 98.2399 124.738V125.056C98.2399 126.134 97.9544 126.958 97.3836 127.561C96.8127 128.132 96.0199 128.417 95.0367 128.417C93.5145 128.417 92.5947 127.815 91.4213 126.261L89.2013 128.386L89.2648 128.481C89.7405 129.147 90.4699 129.813 91.453 130.447C92.4362 131.081 93.6413 131.398 95.1002 131.398C97.0347 131.398 98.6204 130.796 99.7621 129.622C100.936 128.449 101.506 126.863 101.506 124.897V113.099H98.3033V114.178H98.2716ZM97.4153 121.852C96.8444 122.487 96.115 122.804 95.1636 122.804C94.2122 122.804 93.4827 122.487 92.9436 121.852C92.3728 121.218 92.0873 120.362 92.0873 119.315C92.0873 118.269 92.3728 117.381 92.9436 116.746C93.5145 116.112 94.2439 115.763 95.1636 115.763C96.115 115.763 96.8444 116.08 97.4153 116.746C97.9861 117.381 98.2716 118.269 98.2716 119.315C98.2716 120.362 97.9544 121.218 97.4153 121.852Z" fill="black"/>
<path d="M107.532 113.099H104.266V126.101H107.532V113.099Z" fill="black"/>
<path d="M105.946 107.423C105.376 107.423 104.9 107.613 104.519 107.994C104.139 108.374 103.917 108.85 103.917 109.389C103.917 109.96 104.107 110.436 104.519 110.816C104.9 111.197 105.376 111.419 105.946 111.419C106.517 111.419 106.993 111.229 107.374 110.816C107.754 110.436 107.976 109.928 107.976 109.389C107.976 108.818 107.786 108.343 107.374 107.994C106.993 107.613 106.486 107.423 105.946 107.423Z" fill="black"/>
<path d="M114.699 109.609H111.496V113.13H109.625V116.111H111.496V121.502C111.496 123.183 111.845 124.388 112.511 125.086C113.177 125.784 114.35 126.132 116.031 126.132C116.57 126.132 117.11 126.101 117.617 126.069H117.776V123.088L116.666 123.151C115.873 123.151 115.365 123.024 115.112 122.739C114.858 122.454 114.731 121.883 114.731 121.026V116.079H117.776V113.098H114.731V109.609H114.699Z" fill="black"/>
<path d="M136.328 107.645H133.061V126.07H136.328V107.645Z" fill="black"/>
<path d="M169.342 121.44C168.771 122.106 168.169 122.677 167.693 122.962C167.249 123.248 166.678 123.406 166.012 123.406C165.061 123.406 164.268 123.058 163.633 122.328C162.999 121.599 162.682 120.679 162.682 119.569C162.682 118.459 162.999 117.539 163.602 116.842C164.236 116.112 164.997 115.763 165.949 115.763C166.995 115.763 168.105 116.429 169.057 117.539L171.213 115.478C169.818 113.639 168.01 112.782 165.853 112.782C164.046 112.782 162.492 113.448 161.223 114.717C159.955 115.985 159.32 117.634 159.32 119.569C159.32 121.504 159.955 123.121 161.223 124.421C162.492 125.722 164.046 126.356 165.853 126.356C168.232 126.356 170.135 125.341 171.403 123.47L169.342 121.44Z" fill="black"/>
<path d="M182.757 114.907C182.282 114.273 181.647 113.734 180.886 113.353C180.093 112.973 179.206 112.782 178.191 112.782C176.351 112.782 174.861 113.448 173.751 114.78C172.672 116.112 172.102 117.73 172.102 119.664C172.102 121.63 172.704 123.248 173.909 124.516C175.083 125.753 176.7 126.388 178.635 126.388C180.823 126.388 182.662 125.5 183.994 123.724L184.058 123.628L181.933 121.567C181.743 121.821 181.457 122.074 181.203 122.328C180.886 122.645 180.569 122.867 180.252 123.026C179.776 123.28 179.206 123.375 178.603 123.375C177.683 123.375 176.954 123.121 176.383 122.582C175.844 122.106 175.527 121.44 175.463 120.616H184.121L184.153 119.41C184.153 118.554 184.026 117.761 183.804 117C183.582 116.271 183.233 115.573 182.757 114.907ZM175.622 117.983C175.78 117.349 176.066 116.842 176.478 116.429C176.922 115.985 177.493 115.763 178.191 115.763C178.984 115.763 179.586 115.985 179.998 116.429C180.379 116.842 180.601 117.349 180.664 117.952H175.622V117.983Z" fill="black"/>
<path d="M195.316 114.083C194.333 113.227 192.97 112.814 191.257 112.814C190.179 112.814 189.164 113.068 188.244 113.512C187.388 113.956 186.563 114.654 186.024 115.605L186.056 115.637L188.149 117.635C189.005 116.271 189.957 115.796 191.225 115.796C191.923 115.796 192.462 115.986 192.906 116.335C193.35 116.684 193.54 117.159 193.54 117.73V118.364C192.716 118.111 191.923 117.984 191.13 117.984C189.513 117.984 188.181 118.364 187.198 119.126C186.214 119.887 185.707 120.997 185.707 122.36C185.707 123.566 186.119 124.58 186.976 125.31C187.832 126.007 188.878 126.388 190.115 126.388C191.352 126.388 192.526 125.881 193.572 125.024V126.103H196.775V117.73C196.839 116.176 196.331 114.939 195.316 114.083ZM189.513 121.124C189.893 120.87 190.401 120.743 191.067 120.743C191.86 120.743 192.684 120.902 193.54 121.219V122.487C192.843 123.153 191.891 123.47 190.718 123.47C190.147 123.47 189.703 123.344 189.418 123.09C189.132 122.836 188.974 122.551 188.974 122.138C188.974 121.726 189.164 121.377 189.513 121.124Z" fill="black"/>
<path d="M209.397 114.337C208.478 113.322 207.209 112.814 205.592 112.814C204.291 112.814 203.245 113.195 202.452 113.924V113.132H199.249V126.134H202.515V118.935C202.515 117.952 202.737 117.159 203.213 116.62C203.689 116.049 204.291 115.796 205.148 115.796C205.877 115.796 206.448 116.049 206.86 116.525C207.272 117.032 207.494 117.698 207.494 118.555V126.071H210.761V118.555C210.761 116.779 210.317 115.352 209.397 114.337Z" fill="black"/>
<path d="M128.97 114.083C127.987 113.227 126.623 112.814 124.911 112.814C123.833 112.814 122.818 113.068 121.898 113.512C121.042 113.956 120.217 114.654 119.678 115.605L119.71 115.637L121.803 117.635C122.659 116.271 123.611 115.796 124.879 115.796C125.577 115.796 126.116 115.986 126.56 116.335C127.004 116.684 127.194 117.159 127.194 117.73V118.364C126.37 118.111 125.577 117.984 124.784 117.984C123.167 117.984 121.835 118.364 120.851 119.126C119.868 119.887 119.361 120.997 119.361 122.36C119.361 123.566 119.773 124.58 120.629 125.31C121.486 126.007 122.532 126.388 123.769 126.388C125.006 126.388 126.179 125.881 127.226 125.024V126.103H130.429V117.73C130.461 116.176 129.953 114.939 128.97 114.083ZM123.167 121.124C123.547 120.87 124.055 120.743 124.721 120.743C125.513 120.743 126.338 120.902 127.194 121.219V122.487C126.497 123.153 125.545 123.47 124.372 123.47C123.801 123.47 123.357 123.344 123.071 123.09C122.786 122.836 122.627 122.551 122.627 122.138C122.627 121.726 122.786 121.377 123.167 121.124Z" fill="black"/>
<path d="M148.189 126.356C142.956 126.356 138.675 122.106 138.675 116.841C138.675 111.577 142.924 107.327 148.189 107.327C153.422 107.327 157.703 111.577 157.703 116.841C157.703 122.106 153.422 126.356 148.189 126.356ZM148.189 110.721C144.795 110.721 142.036 113.48 142.036 116.873C142.036 120.266 144.795 123.026 148.189 123.026C151.582 123.026 154.341 120.266 154.341 116.873C154.341 113.48 151.582 110.721 148.189 110.721Z" fill="black"/>
</g>
<defs>
<clipPath id="clip0_1740_32364">
<rect width="191.236" height="32.6655" fill="white" transform="translate(20 100)"/>
</clipPath>
</defs>
</svg>
