<svg width="232" height="232" viewBox="0 0 232 232" fill="none" xmlns="http://www.w3.org/2000/svg">
<g clip-path="url(#clip0_1740_32349)">
<path d="M115.667 55.001C89.8969 55.001 69 75.894 69 101.668C69 122.287 82.3715 139.78 100.914 145.95C103.246 146.382 104.102 144.938 104.102 143.705C104.102 142.592 104.059 138.916 104.039 135.017C91.0561 137.84 88.3166 129.511 88.3166 129.511C86.1937 124.117 83.135 122.682 83.135 122.682C78.9009 119.786 83.4542 119.846 83.4542 119.846C88.1404 120.175 90.6079 124.655 90.6079 124.655C94.7701 131.789 101.525 129.726 104.188 128.534C104.607 125.518 105.816 123.459 107.151 122.294C96.7856 121.114 85.8893 117.112 85.8893 99.2307C85.8893 94.1357 87.7123 89.9727 90.6975 86.7046C90.213 85.5291 88.6156 80.7827 91.1496 74.3546C91.1496 74.3546 95.0684 73.1004 103.986 79.1382C107.709 78.1042 111.701 77.5857 115.667 77.5679C119.633 77.5857 123.628 78.1042 127.358 79.1382C136.265 73.1004 140.178 74.3546 140.178 74.3546C142.718 80.7827 141.12 85.5291 140.636 86.7046C143.628 89.9727 145.439 94.1357 145.439 99.2307C145.439 117.155 134.522 121.101 124.13 122.257C125.804 123.705 127.295 126.545 127.295 130.899C127.295 137.143 127.241 142.168 127.241 143.705C127.241 144.947 128.081 146.402 130.447 145.944C148.979 139.766 162.333 122.28 162.333 101.668C162.333 75.894 141.439 55.001 115.667 55.001ZM86.4783 121.479C86.3755 121.711 86.0108 121.781 85.6785 121.621C85.34 121.469 85.1499 121.153 85.2596 120.92C85.3601 120.682 85.7256 120.615 86.0633 120.775C86.4026 120.927 86.5958 121.247 86.4783 121.479ZM88.7738 123.527C88.5513 123.734 88.1162 123.638 87.821 123.312C87.5157 122.986 87.4585 122.551 87.6842 122.342C87.9137 122.136 88.3357 122.232 88.6417 122.558C88.9469 122.887 89.0064 123.319 88.7738 123.527ZM90.3486 126.148C90.0627 126.347 89.5952 126.16 89.3061 125.745C89.0202 125.33 89.0202 124.833 89.3123 124.633C89.6021 124.434 90.0627 124.613 90.3556 125.025C90.6407 125.447 90.6407 125.945 90.3486 126.148ZM93.012 129.183C92.7562 129.465 92.2113 129.39 91.8126 129.005C91.4046 128.628 91.291 128.094 91.5475 127.812C91.8064 127.529 92.3543 127.609 92.7562 127.991C93.1611 128.366 93.2847 128.904 93.012 129.183ZM96.454 130.208C96.3412 130.573 95.8165 130.739 95.2879 130.584C94.7601 130.424 94.4147 129.996 94.5213 129.627C94.631 129.259 95.1581 129.086 95.6905 129.252C96.2176 129.411 96.5638 129.836 96.454 130.208ZM100.371 130.642C100.384 131.027 99.9362 131.346 99.3813 131.353C98.8234 131.366 98.3721 131.054 98.3659 130.676C98.3659 130.287 98.8041 129.971 99.362 129.962C99.9169 129.951 100.371 130.26 100.371 130.642ZM104.22 130.495C104.286 130.87 103.9 131.256 103.349 131.359C102.808 131.458 102.306 131.226 102.237 130.853C102.17 130.469 102.563 130.083 103.104 129.983C103.655 129.887 104.149 130.113 104.22 130.495Z" fill="black"/>
</g>
<g clip-path="url(#clip1_1740_32349)">
<path d="M110.262 171.684H110.235C110.247 171.684 110.255 171.697 110.268 171.699H110.276L110.262 171.685V171.684ZM110.268 171.699C110.141 171.7 109.822 171.767 109.486 171.767C108.425 171.767 108.057 171.277 108.057 170.637V166.375H110.221C110.344 166.375 110.439 166.266 110.439 166.116V163.803C110.439 163.68 110.33 163.571 110.221 163.571H108.057V160.699C108.057 160.59 107.989 160.522 107.867 160.522H104.926C104.804 160.522 104.736 160.59 104.736 160.699V163.653C104.736 163.653 103.252 164.02 103.157 164.034C103.048 164.061 102.98 164.156 102.98 164.265V166.116C102.98 166.266 103.089 166.375 103.211 166.375H104.722V170.84C104.722 174.161 107.036 174.501 108.615 174.501C109.337 174.501 110.208 174.27 110.344 174.202C110.425 174.174 110.466 174.079 110.466 173.984V171.942C110.468 171.884 110.449 171.828 110.413 171.783C110.376 171.738 110.325 171.707 110.268 171.697V171.699ZM142.521 168.703C142.521 166.239 141.527 165.912 140.479 166.021C139.663 166.076 139.009 166.484 139.009 166.484V171.275C139.009 171.275 139.676 171.738 140.67 171.765C142.072 171.806 142.521 171.302 142.521 168.703ZM145.829 168.485C145.829 173.154 144.318 174.487 141.677 174.487C139.445 174.487 138.247 173.358 138.247 173.358C138.247 173.358 138.193 173.984 138.125 174.066C138.084 174.147 138.016 174.174 137.934 174.174H135.92C135.783 174.174 135.661 174.066 135.661 173.943L135.688 158.821C135.688 158.698 135.797 158.589 135.92 158.589H138.819C138.941 158.589 139.05 158.698 139.05 158.821V163.952C139.05 163.952 140.166 163.231 141.8 163.231L141.786 163.204C143.419 163.204 145.829 163.816 145.829 168.485ZM133.96 163.571H131.101C130.951 163.571 130.87 163.68 130.87 163.83V171.234C130.87 171.234 130.121 171.765 129.1 171.765C128.079 171.765 127.78 171.302 127.78 170.282V163.816C127.78 163.694 127.671 163.585 127.549 163.585H124.636C124.513 163.585 124.404 163.694 124.404 163.816V170.772C124.404 173.766 126.079 174.515 128.379 174.515C130.271 174.515 131.809 173.467 131.809 173.467C131.809 173.467 131.877 173.997 131.918 174.079C131.945 174.147 132.04 174.202 132.136 174.202H133.96C134.109 174.202 134.191 174.093 134.191 173.97L134.218 163.803C134.218 163.68 134.109 163.571 133.96 163.571ZM101.701 163.558H98.8014C98.6789 163.558 98.57 163.68 98.57 163.83V173.821C98.57 174.093 98.7469 174.188 98.9783 174.188H101.592C101.864 174.188 101.932 174.066 101.932 173.821V163.789C101.932 163.666 101.823 163.558 101.701 163.558ZM100.271 158.957C99.2233 158.957 98.393 159.787 98.393 160.835C98.393 161.883 99.2233 162.714 100.271 162.714C101.292 162.714 102.123 161.883 102.123 160.835C102.123 159.787 101.292 158.957 100.271 158.957ZM122.717 158.617H119.845C119.722 158.617 119.613 158.726 119.613 158.848V164.415H115.108V158.848C115.108 158.726 114.999 158.617 114.876 158.617H111.977C111.855 158.617 111.746 158.726 111.746 158.848V173.97C111.746 174.093 111.868 174.202 111.977 174.202H114.876C114.999 174.202 115.108 174.093 115.108 173.97V167.505H119.613L119.586 173.97C119.586 174.093 119.695 174.202 119.817 174.202H122.717C122.839 174.202 122.948 174.093 122.948 173.97V158.848C122.948 158.726 122.839 158.617 122.717 158.617ZM97.0319 165.313V173.126C97.0319 173.181 97.0183 173.276 96.9502 173.303C96.9502 173.303 95.2488 174.515 92.4449 174.515C89.0556 174.515 85.0403 173.453 85.0403 166.457C85.0403 159.461 88.552 158.018 91.9821 158.031C94.9494 158.031 96.1472 158.698 96.3377 158.821C96.3922 158.889 96.4194 158.943 96.4194 159.011L95.8477 161.434C95.8477 161.557 95.7252 161.706 95.5755 161.666C95.0855 161.516 94.3505 161.216 92.6218 161.216C90.6209 161.216 88.4703 161.788 88.4703 166.293C88.4703 170.799 90.5121 171.33 91.9821 171.33C93.2343 171.33 93.6835 171.18 93.6835 171.18V168.049H91.6826C91.5329 168.049 91.424 167.94 91.424 167.818V165.313C91.424 165.191 91.5329 165.082 91.6826 165.082H96.7733C96.923 165.082 97.0319 165.191 97.0319 165.313Z" fill="black"/>
</g>
<defs>
<clipPath id="clip0_1740_32349">
<rect width="93.3333" height="91.1458" fill="white" transform="translate(69 55)"/>
</clipPath>
<clipPath id="clip1_1740_32349">
<rect width="61.2511" height="21.8754" fill="white" transform="translate(85.0404 155.261)"/>
</clipPath>
</defs>
</svg>
