<svg width="232" height="232" viewBox="0 0 232 232" fill="none" xmlns="http://www.w3.org/2000/svg">
<g clip-path="url(#clip0_1740_32362)">
<path d="M74.6563 122.058C74.6563 122.622 74.5368 123.12 74.2978 123.558C74.0588 123.996 73.7269 124.335 73.2887 124.574C72.8505 124.813 72.3593 124.932 71.7949 124.932H69V129.002H72.3858C73.6605 129.002 74.8023 128.716 75.8181 128.145C76.8338 127.574 77.6305 126.784 78.2081 125.782C78.7856 124.779 79.0777 123.651 79.0777 122.389V109.012H74.6563V122.058ZM86.56 120.843H95.8207V117.105H86.56V112.863H96.7967V109.012H82.2511V128.995H97.082V125.145H86.56V120.843ZM98.47 112.976H104.391V128.988H108.813V112.976H114.708V109.012H98.4633V112.982L98.47 112.976ZM129.818 118.977C129.473 118.791 129.095 118.652 128.703 118.546C129.002 118.459 129.287 118.353 129.553 118.22C130.283 117.842 130.861 117.311 131.272 116.627C131.684 115.943 131.896 115.16 131.896 114.27C131.896 113.254 131.617 112.345 131.067 111.542C130.515 110.745 129.739 110.121 128.743 109.669C127.747 109.225 126.605 108.999 125.331 108.999H116.454V128.982H125.503C126.844 128.982 128.039 128.749 129.095 128.278C130.143 127.807 130.96 127.156 131.545 126.313C132.122 125.477 132.414 124.521 132.414 123.445C132.414 122.456 132.189 121.573 131.73 120.789C131.272 120.006 130.641 119.402 129.825 118.97L129.818 118.977ZM120.749 112.365H124.673C125.217 112.365 125.695 112.464 126.114 112.657C126.532 112.849 126.857 113.128 127.09 113.493C127.322 113.852 127.441 114.277 127.441 114.761C127.441 115.246 127.322 115.704 127.09 116.083C126.857 116.461 126.532 116.746 126.114 116.952C125.695 117.158 125.217 117.258 124.673 117.258H120.749V112.358V112.365ZM127.508 124.454C127.256 124.833 126.897 125.125 126.439 125.33C125.975 125.536 125.45 125.636 124.846 125.636H120.749V120.511H124.846C125.437 120.511 125.961 120.624 126.426 120.843C126.884 121.062 127.249 121.367 127.501 121.765C127.753 122.164 127.887 122.615 127.887 123.126C127.887 123.638 127.76 124.076 127.508 124.454ZM147.239 120.916C148.347 120.385 149.203 119.634 149.815 118.672C150.425 117.709 150.731 116.594 150.731 115.319C150.731 114.044 150.432 112.969 149.835 112.013C149.237 111.057 148.387 110.32 147.292 109.796C146.196 109.271 144.928 109.012 143.481 109.012H134.731V128.995H139.159V121.719H142.041L146.097 128.995H151.149L146.581 121.181C146.807 121.102 147.033 121.015 147.245 120.916H147.239ZM145.805 116.833C145.559 117.251 145.207 117.576 144.749 117.795C144.291 118.021 143.753 118.134 143.136 118.134H139.153V112.604H143.136C143.753 112.604 144.291 112.717 144.749 112.936C145.207 113.155 145.559 113.48 145.805 113.892C146.05 114.303 146.177 114.795 146.177 115.352C146.177 115.91 146.05 116.401 145.805 116.819V116.833ZM159.534 109.012L152.397 128.995H156.891L158.305 124.587H165.715L167.228 128.995H171.636L164.327 109.012H159.534ZM159.308 121.241L161.605 114.191L161.877 112.909L162.149 114.191L164.606 121.241H159.308ZM173.103 128.995H177.671V109.012H173.103V128.995ZM193.783 122.529L185.186 109.012H180.877V128.995H184.914V115.478L193.465 128.995H197.82V109.012H193.783V122.529ZM214.802 120.292C214.371 119.462 213.759 118.765 212.983 118.2C212.206 117.636 211.31 117.264 210.301 117.072L206.902 116.375C206.371 116.249 205.946 116.029 205.634 115.711C205.321 115.392 205.162 114.994 205.162 114.522C205.162 114.091 205.275 113.719 205.507 113.4C205.733 113.082 206.059 112.836 206.47 112.657C206.882 112.478 207.36 112.391 207.904 112.391C208.449 112.391 208.94 112.484 209.358 112.67C209.776 112.856 210.101 113.115 210.334 113.454C210.567 113.792 210.686 114.171 210.686 114.602H215.114C215.087 113.44 214.762 112.411 214.151 111.522C213.541 110.625 212.684 109.928 211.595 109.424C210.507 108.919 209.259 108.667 207.864 108.667C206.47 108.667 205.235 108.926 204.153 109.45C203.071 109.975 202.221 110.698 201.617 111.628C201.013 112.557 200.708 113.613 200.708 114.801C200.708 115.764 200.9 116.634 201.292 117.404C201.683 118.18 202.235 118.824 202.945 119.336C203.662 119.847 204.485 120.205 205.428 120.404L209.026 121.148C209.617 121.287 210.082 121.546 210.427 121.918C210.772 122.29 210.938 122.748 210.938 123.306C210.938 123.75 210.812 124.155 210.56 124.507C210.307 124.859 209.955 125.131 209.504 125.324C209.053 125.516 208.521 125.609 207.911 125.609C207.3 125.609 206.723 125.503 206.225 125.291C205.727 125.078 205.341 124.773 205.069 124.374C204.791 123.983 204.658 123.525 204.658 123.014H200.23C200.249 124.262 200.581 125.357 201.239 126.313C201.889 127.262 202.785 128.006 203.927 128.537C205.069 129.068 206.377 129.334 207.851 129.334C209.325 129.334 210.653 129.061 211.795 128.517C212.943 127.973 213.833 127.223 214.477 126.267C215.121 125.311 215.439 124.228 215.439 123.02C215.439 122.031 215.22 121.121 214.789 120.285L214.802 120.292Z" fill="black"/>
<path d="M48.9999 105.667H22.3333V132.334H48.9999V105.667Z" fill="black"/>
<path d="M37.0001 126.333H25.6667V129H37.0001V126.333Z" fill="white"/>
</g>
<defs>
<clipPath id="clip0_1740_32362">
<rect width="198.667" height="42.6667" fill="white" transform="translate(17 95)"/>
</clipPath>
</defs>
</svg>
