<svg width="232" height="232" viewBox="0 0 232 232" fill="none" xmlns="http://www.w3.org/2000/svg">
<g clip-path="url(#clip0_1740_32363)">
<mask id="mask0_1740_32363" style="mask-type:luminance" maskUnits="userSpaceOnUse" x="-1345" y="-776" width="2921" height="2318">
<path d="M-1344.14 1541.56H1575.56V-775.376H-1344.14V1541.56Z" fill="white"/>
</mask>
<g mask="url(#mask0_1740_32363)">
<path d="M77.0927 98.3418H63.289C62.6112 98.3418 61.9704 98.7188 61.6019 99.2955L59.2691 103.121H73.1767C74.0549 103.182 74.75 104 74.75 104.998C74.75 105.012 74.7475 112.309 74.7475 112.309H64.3156V110.216V110.208C64.3156 109.792 64.6174 109.456 64.986 109.456H72.2737V106.753C72.2737 106.091 71.9076 105.719 71.4079 105.719H61.3001C60.0632 105.719 59.0613 106.842 59.0613 108.225V114.896C59.0613 114.926 59.0712 114.962 59.086 115.004C59.2245 116.005 59.9964 116.739 60.9265 116.739H80.6351V102.317C80.6351 100.122 79.0494 98.3418 77.0927 98.3418Z" fill="black"/>
<path d="M202.838 98.3418H189.039C188.356 98.3418 187.718 98.7188 187.349 99.2955L185.014 103.121H198.924C199.8 103.182 200.5 104 200.5 104.998C200.5 105.012 200.495 112.309 200.495 112.309H190.061V110.216V110.208C190.061 109.792 190.362 109.456 190.734 109.456H198.024V106.753C198.024 106.091 197.655 105.719 197.153 105.719H187.048C185.811 105.719 184.811 106.842 184.811 108.225V114.896C184.811 114.926 184.821 114.962 184.836 115.004C184.972 116.005 185.744 116.739 186.677 116.739H206.385V102.317C206.385 100.122 204.797 98.3418 202.838 98.3418Z" fill="black"/>
<path d="M159.388 91.652V98.3445V112.154H150.73C150.131 112.154 149.713 111.555 149.713 111.061V105.004V104.998C149.713 103.959 150.465 103.121 151.393 103.121H155.771C156.427 103.121 157.097 102.703 157.372 102.19L159.388 98.3445C159.388 98.3445 147.254 98.3473 147.247 98.3473C145.293 98.3473 143.702 100.124 143.702 102.317C143.702 102.331 143.704 102.34 143.704 102.353C143.704 102.364 143.702 112.644 143.702 113.451C143.702 115.564 145.226 116.739 146.611 116.739H165.399V91.652H159.388Z" fill="black"/>
<path d="M171.799 98.3428C170.305 98.3428 169.34 99.6375 169.34 101.026V116.74H175.351V105.027C175.349 103.973 176.017 103.1 176.969 103.1H181.417C182.063 103.053 182.624 102.629 182.965 102.063C182.983 102.036 185.298 98.3428 185.298 98.3428H171.799Z" fill="black"/>
<path d="M109.404 104.326V116.74H115.373V105.64V98.5535C115.373 98.5535 112.602 100.486 110.643 101.855C109.896 102.393 109.404 103.297 109.404 104.326ZM109.404 91.6336H115.373V96.269L109.404 100.71V91.6336Z" fill="black"/>
<path d="M51.1544 91.652H22.4363V116.739H28.4006V97.5073H34.7755C35.3841 97.5184 35.8664 98.0729 35.8664 98.7576L35.8689 116.739H41.8382V98.7576C41.8382 98.0645 42.3403 97.5045 42.9588 97.5045C42.9612 97.5045 42.9637 97.5073 42.9687 97.5073H47.6664C48.5718 97.5073 49.3065 98.3279 49.3065 99.3426V116.739H55.2733V96.2653C55.2733 93.7202 53.4278 91.652 51.1544 91.652Z" fill="black"/>
<path d="M136.273 98.3445C136.214 98.3445 119.301 98.3556 119.301 98.3556V116.739H125.307V103.116H132.145C133.072 103.116 133.824 103.956 133.824 104.995L133.827 116.739H139.818V102.317C139.818 100.124 138.23 98.3445 136.273 98.3445Z" fill="black"/>
<path d="M105.463 102.311C105.463 100.118 103.877 98.3379 101.918 98.3379C101.903 98.3379 101.866 98.3406 101.863 98.3379H94.0659C93.3634 98.3379 93.0245 98.7343 92.6608 99.3415C92.641 99.372 90.3157 103.117 90.3157 103.117H97.8879C98.7834 103.162 99.4959 103.985 99.4959 104.997C99.4959 105.005 99.4934 116.735 99.4934 116.735H105.463V102.355V102.311ZM84.3464 91.6509H90.3181V116.735H84.3464V91.6509Z" fill="black"/>
<path d="M174.62 127.172C174.62 126.537 174.511 126.01 174.303 125.586C174.093 125.165 173.818 124.824 173.469 124.566C173.126 124.308 172.732 124.125 172.294 124.02C171.854 123.914 171.401 123.862 170.941 123.862C170.479 123.862 170.014 123.867 169.541 123.878C169.071 123.889 168.604 123.895 168.146 123.895L167.327 131.33C167.807 131.377 168.277 131.416 168.725 131.452C169.177 131.488 169.64 131.505 170.125 131.505C171.572 131.505 172.68 131.142 173.455 130.413C174.231 129.686 174.62 128.605 174.62 127.172ZM176.693 139.337C176.693 139.72 176.515 140.019 176.158 140.232C175.802 140.451 175.194 140.56 174.335 140.56C174.127 140.56 173.944 140.493 173.784 140.363C173.63 140.235 173.509 140.077 173.425 139.889L170.375 132.913C170.268 132.936 170.135 132.949 169.964 132.949H169.62C169.16 132.949 168.757 132.93 168.411 132.897C168.067 132.861 167.661 132.808 167.198 132.739L166.323 140.31C166.216 140.36 166.085 140.396 165.927 140.415C165.771 140.44 165.578 140.454 165.343 140.454C164.987 140.454 164.744 140.377 164.606 140.224C164.47 140.072 164.401 139.83 164.401 139.501C164.401 139.384 164.425 139.115 164.467 138.691C164.507 138.267 164.561 137.74 164.623 137.105C164.685 136.47 164.759 135.755 164.843 134.957C164.927 134.158 165.019 133.313 165.125 132.42C165.291 130.989 165.467 129.567 165.642 128.159C165.821 126.75 165.996 125.328 166.162 123.895L164.121 123.826C164.037 123.706 163.995 123.543 163.995 123.332C163.995 122.606 164.507 122.24 165.534 122.24H171.352C171.98 122.24 172.609 122.312 173.232 122.453C173.863 122.592 174.427 122.839 174.917 123.188C175.406 123.54 175.805 124.008 176.114 124.596C176.416 125.181 176.567 125.908 176.567 126.775C176.567 128.392 176.186 129.653 175.419 130.554C174.657 131.455 173.603 132.132 172.262 132.575L175.119 138.832L176.475 138.691C176.621 138.857 176.693 139.071 176.693 139.337Z" fill="black"/>
<path d="M183.531 122.925C183.531 123.372 183.403 123.724 183.153 123.981C182.901 124.242 182.534 124.37 182.05 124.37C181.696 124.37 181.409 124.281 181.189 124.106C180.969 123.929 180.857 123.629 180.857 123.208C180.857 122.784 180.996 122.437 181.268 122.168C181.537 121.897 181.916 121.764 182.398 121.764C182.816 121.764 183.108 121.869 183.277 122.08C183.447 122.29 183.531 122.573 183.531 122.925ZM184.081 139.335C184.081 139.67 183.88 139.953 183.479 140.18C183.081 140.408 182.416 140.521 181.471 140.521C180.884 140.521 180.444 140.394 180.152 140.133C179.858 139.876 179.712 139.407 179.712 138.725C179.712 138.232 179.771 137.502 179.897 136.54L180.969 128.193L178.987 128.262C178.841 128.123 178.767 127.935 178.767 127.699C178.767 127.3 178.97 127.006 179.378 126.818C179.789 126.629 180.494 126.538 181.503 126.538C182.111 126.538 182.507 126.624 182.695 126.798C182.883 126.976 182.95 127.319 182.883 127.835L182.225 133.28C182.077 134.453 181.951 135.47 181.847 136.338C181.74 137.203 181.691 137.777 181.691 138.057C181.691 138.387 181.74 138.589 181.847 138.672C181.951 138.755 182.205 138.797 182.604 138.797C182.75 138.797 182.955 138.767 183.215 138.706C183.479 138.647 183.682 138.595 183.828 138.548C183.996 138.689 184.081 138.952 184.081 139.335Z" fill="black"/>
<path d="M195.048 127.839C195.048 128.169 194.993 128.41 194.877 128.56C194.761 128.715 194.585 128.837 194.36 128.934C193.939 128.554 193.477 128.302 192.975 128.174C192.47 128.047 191.903 127.98 191.28 127.98C190.375 127.98 189.689 128.202 189.219 128.648C188.747 129.097 188.509 129.588 188.509 130.131C188.509 130.481 188.552 130.78 188.636 131.027C188.72 131.274 188.878 131.504 189.111 131.714C189.338 131.925 189.657 132.13 190.065 132.33C190.474 132.53 190.993 132.76 191.621 133.017C192.19 133.275 192.653 133.522 193.024 133.758C193.388 133.993 193.675 134.246 193.885 134.515C194.093 134.783 194.244 135.077 194.325 135.396C194.409 135.712 194.454 136.059 194.454 136.436C194.454 136.929 194.365 137.423 194.184 137.913C194.004 138.407 193.734 138.848 193.365 139.236C193.002 139.621 192.532 139.935 191.97 140.167C191.401 140.403 190.733 140.52 189.957 140.52C189.662 140.52 189.259 140.508 188.747 140.489C188.232 140.464 187.718 140.389 187.206 140.262C186.691 140.137 186.246 139.94 185.87 139.677C185.494 139.413 185.306 139.047 185.306 138.584C185.306 138.255 185.4 137.997 185.59 137.808C185.776 137.622 186.018 137.478 186.313 137.387C186.751 137.95 187.339 138.354 188.072 138.601C188.806 138.848 189.496 138.97 190.147 138.97C190.941 138.97 191.567 138.776 192.015 138.388C192.465 137.999 192.693 137.487 192.693 136.852C192.693 136.333 192.515 135.898 192.156 135.546C191.8 135.191 191.129 134.814 190.147 134.415C189.519 134.179 188.984 133.932 188.542 133.672C188.101 133.414 187.752 133.131 187.488 132.823C187.228 132.518 187.035 132.166 186.906 131.764C186.78 131.365 186.721 130.894 186.721 130.353C186.721 129.763 186.842 129.222 187.08 128.726C187.322 128.232 187.658 127.803 188.089 127.437C188.514 127.074 189.026 126.785 189.63 126.572C190.224 126.361 190.877 126.256 191.592 126.256C192.68 126.256 193.531 126.4 194.14 126.694C194.743 126.988 195.048 127.37 195.048 127.839Z" fill="black"/>
<path d="M204.73 129.848C204.73 129.213 204.557 128.717 204.211 128.348C203.864 127.988 203.251 127.805 202.373 127.805C201.974 127.805 201.556 127.874 201.114 128.016C200.673 128.157 200.253 128.393 199.857 128.72C199.459 129.05 199.1 129.496 198.773 130.059C198.449 130.622 198.202 131.328 198.034 132.171C198.39 132.243 198.835 132.296 199.372 132.332C199.906 132.365 200.391 132.385 200.834 132.385C202.279 132.385 203.291 132.166 203.864 131.733C204.443 131.298 204.73 130.669 204.73 129.848ZM206.427 129.601C206.427 132.418 204.602 133.829 200.96 133.829C200.475 133.829 199.971 133.81 199.449 133.777C198.924 133.74 198.39 133.677 197.848 133.582C197.826 133.721 197.814 133.862 197.814 134.004V134.356C197.814 137.411 198.934 138.936 201.175 138.936C201.871 138.936 202.561 138.855 203.251 138.689C203.946 138.526 204.624 138.268 205.297 137.916C205.547 138.124 205.673 138.395 205.673 138.725C205.673 139.196 205.304 139.635 204.574 140.045C203.84 140.455 202.633 140.663 200.96 140.663C197.628 140.663 195.958 138.714 195.958 134.813C195.958 133.546 196.107 132.385 196.401 131.328C196.69 130.269 197.123 129.366 197.687 128.614C198.256 127.863 198.956 127.284 199.795 126.871C200.634 126.46 201.606 126.255 202.719 126.255C203.432 126.255 204.023 126.344 204.493 126.518C204.965 126.696 205.341 126.929 205.623 127.223C205.91 127.516 206.116 127.869 206.237 128.282C206.363 128.692 206.427 129.13 206.427 129.601Z" fill="black"/>
<path d="M210.528 138.795C210.528 139.313 210.379 139.71 210.087 139.993C209.793 140.275 209.385 140.414 208.863 140.414C208.487 140.414 208.173 140.314 207.918 140.115C207.67 139.915 207.542 139.582 207.542 139.114C207.542 138.64 207.69 138.254 207.985 137.949C208.276 137.644 208.697 137.492 209.239 137.492C209.699 137.492 210.033 137.608 210.231 137.841C210.426 138.08 210.528 138.396 210.528 138.795Z" fill="black"/>
</g>
</g>
<defs>
<clipPath id="clip0_1740_32363">
<rect width="190.727" height="51.8695" fill="white" transform="translate(21 90)"/>
</clipPath>
</defs>
</svg>
