<svg width="232" height="232" viewBox="0 0 232 232" fill="none" xmlns="http://www.w3.org/2000/svg">
<path d="M75.6291 137.465C75.6073 137.53 75.6291 137.574 75.7039 137.574H77.1183C77.1869 137.58 77.2461 137.534 77.2585 137.465L77.6698 136.181H80.24L80.6606 137.465C80.6731 137.53 80.7323 137.577 80.8008 137.574H82.2028C82.2775 137.574 82.3025 137.53 82.2775 137.465L79.7945 130.343C79.7789 130.278 79.7197 130.234 79.6543 130.234H78.296C78.2305 130.231 78.1714 130.278 78.1558 130.343L75.6291 137.465ZM78.1122 134.832L78.944 132.265H78.9751L79.807 134.832H78.1122ZM85.689 135.889C86.0784 137.088 87.0162 137.692 88.2997 137.692C89.5428 137.692 90.4494 137.088 90.8575 136.063C90.8856 136.026 90.8762 135.973 90.8388 135.948C90.8295 135.942 90.817 135.935 90.8046 135.932L89.6269 135.403C89.5802 135.371 89.5148 135.387 89.4867 135.437C89.4836 135.443 89.4805 135.449 89.4774 135.456C89.3123 135.957 88.8387 136.294 88.3122 136.287C87.7982 136.315 87.3371 135.976 87.2093 135.477C87.1221 135.206 87.0909 134.948 87.0909 133.901C87.0909 132.854 87.1252 132.592 87.2093 132.324C87.3371 131.826 87.7982 131.486 88.3122 131.514C88.8418 131.505 89.3123 131.845 89.4774 132.346C89.4961 132.399 89.5553 132.427 89.6082 132.409C89.6145 132.405 89.6207 132.402 89.6269 132.399L90.8046 131.87C90.8513 131.86 90.8793 131.82 90.8731 131.773C90.87 131.761 90.8669 131.748 90.8575 131.739C90.4463 130.714 89.5397 130.109 88.2997 130.109C87.0162 130.109 86.0753 130.714 85.689 131.913C85.527 132.387 85.4834 132.767 85.4834 133.901C85.4834 135.035 85.527 135.415 85.689 135.889ZM94.0415 137.692C95.1413 137.692 96.0074 137.175 96.3096 136.225C96.4342 135.817 96.4934 135.39 96.481 134.963C96.4934 134.536 96.4342 134.11 96.3096 133.698C96.0074 132.751 95.1444 132.231 94.0415 132.231C92.9418 132.231 92.0788 132.751 91.7766 133.698C91.652 134.107 91.5928 134.533 91.6053 134.96C91.5959 135.387 91.652 135.814 91.7766 136.222C92.0788 137.172 92.9418 137.692 94.0415 137.692ZM94.0415 136.418C93.6739 136.443 93.3375 136.213 93.2315 135.857C93.1505 135.568 93.1163 135.262 93.1318 134.96C93.1131 134.658 93.1474 134.356 93.2315 134.063C93.3998 133.617 93.8982 133.39 94.3438 133.558C94.5774 133.645 94.7612 133.829 94.8485 134.063C94.9295 134.353 94.9637 134.658 94.945 134.96C94.9637 135.262 94.9295 135.565 94.8485 135.857C94.7456 136.209 94.4092 136.443 94.0415 136.418ZM99.7522 137.636C99.8083 137.639 99.8581 137.596 99.8612 137.54C99.8612 137.537 99.8612 137.53 99.8612 137.527V136.459C99.8644 136.403 99.8207 136.353 99.7647 136.35C99.7616 136.35 99.7553 136.35 99.7522 136.35H99.5248C99.2101 136.35 99.073 136.209 99.073 135.851V130.337C99.0762 130.281 99.0325 130.231 98.9765 130.228C98.9733 130.228 98.9671 130.228 98.964 130.228H97.668C97.6119 130.225 97.5651 130.268 97.5589 130.324C97.5589 130.327 97.5589 130.334 97.5589 130.337V135.973C97.5589 137.129 98.0231 137.636 99.179 137.636H99.7522ZM102.989 137.636C103.045 137.639 103.095 137.596 103.098 137.54V137.527V136.459C103.101 136.403 103.058 136.353 103.002 136.35C102.999 136.35 102.992 136.35 102.989 136.35H102.762C102.447 136.35 102.31 136.209 102.31 135.851V130.337C102.313 130.281 102.27 130.231 102.213 130.228C102.21 130.228 102.204 130.228 102.201 130.228H100.905C100.849 130.225 100.799 130.268 100.796 130.324V130.337V135.973C100.796 137.129 101.26 137.636 102.416 137.636H102.989ZM106.335 137.692C107.167 137.724 107.971 137.406 108.56 136.817C108.6 136.78 108.6 136.717 108.563 136.677C108.56 136.674 108.553 136.667 108.547 136.664L107.834 135.994C107.79 135.942 107.737 135.951 107.684 135.994C107.363 136.303 106.93 136.468 106.485 136.459C106.008 136.509 105.563 136.222 105.407 135.767C105.373 135.674 105.351 135.574 105.341 135.474C105.335 135.443 105.357 135.415 105.388 135.409C105.394 135.409 105.401 135.409 105.407 135.409H108.569C108.625 135.415 108.678 135.375 108.687 135.318C108.687 135.312 108.687 135.306 108.687 135.303C108.715 134.761 108.656 134.219 108.513 133.695C108.211 132.776 107.413 132.228 106.257 132.228C105.145 132.228 104.313 132.767 104.011 133.708C103.883 134.113 103.827 134.536 103.837 134.96C103.827 135.381 103.89 135.801 104.02 136.203C104.329 137.141 105.148 137.692 106.335 137.692ZM105.407 134.409C105.376 134.415 105.348 134.393 105.341 134.362C105.341 134.356 105.341 134.35 105.341 134.343C105.338 134.212 105.357 134.082 105.394 133.957C105.606 133.474 106.167 133.253 106.65 133.465C106.871 133.561 107.046 133.736 107.142 133.957C107.179 134.082 107.198 134.212 107.195 134.346C107.201 134.378 107.179 134.406 107.148 134.412C107.142 134.412 107.136 134.412 107.13 134.412L105.407 134.409ZM111.691 139.633C113.407 139.633 114.292 138.758 114.292 137.01V132.455C114.295 132.399 114.252 132.349 114.196 132.346C114.192 132.346 114.186 132.346 114.183 132.346H112.887C112.831 132.343 112.781 132.387 112.778 132.443C112.778 132.446 112.778 132.452 112.778 132.455V132.835H112.769C112.46 132.412 111.952 132.181 111.429 132.231C110.619 132.184 109.89 132.711 109.681 133.493C109.553 133.916 109.494 134.359 109.51 134.801C109.497 135.244 109.553 135.686 109.681 136.11C109.893 136.892 110.622 137.418 111.429 137.372C111.949 137.421 112.46 137.191 112.769 136.767H112.778V137.21C112.778 137.976 112.454 138.365 111.731 138.365C111.326 138.359 110.94 138.197 110.653 137.914C110.619 137.867 110.557 137.858 110.51 137.892C110.501 137.898 110.494 137.904 110.488 137.914L109.722 138.689C109.675 138.727 109.666 138.795 109.7 138.842C109.703 138.845 109.706 138.848 109.709 138.851C110.242 139.365 110.952 139.649 111.691 139.633ZM111.906 136.094C111.544 136.119 111.22 135.882 111.13 135.533C111.068 135.294 111.036 135.047 111.043 134.801C111.036 134.555 111.064 134.306 111.13 134.066C111.22 133.717 111.547 133.48 111.906 133.505C112.267 133.474 112.597 133.714 112.681 134.066C112.756 134.303 112.787 134.552 112.781 134.801C112.79 135.051 112.756 135.297 112.681 135.533C112.597 135.885 112.267 136.125 111.906 136.094ZM117.884 137.692C118.716 137.724 119.52 137.406 120.109 136.817C120.149 136.78 120.149 136.717 120.112 136.677C120.109 136.671 120.102 136.667 120.096 136.664L119.383 135.994C119.339 135.942 119.283 135.951 119.233 135.994C118.912 136.303 118.479 136.468 118.034 136.459C117.557 136.509 117.108 136.222 116.956 135.767C116.922 135.674 116.9 135.574 116.89 135.474C116.884 135.443 116.906 135.415 116.937 135.409C116.943 135.409 116.95 135.409 116.956 135.409H120.118C120.174 135.415 120.23 135.375 120.236 135.318C120.236 135.312 120.236 135.306 120.236 135.303C120.268 134.761 120.208 134.219 120.062 133.695C119.76 132.776 118.959 132.228 117.806 132.228C116.694 132.228 115.862 132.767 115.56 133.708C115.432 134.113 115.376 134.536 115.389 134.96C115.379 135.381 115.442 135.801 115.573 136.203C115.878 137.141 116.697 137.692 117.884 137.692ZM116.956 134.409C116.925 134.415 116.897 134.393 116.89 134.362C116.89 134.356 116.89 134.35 116.89 134.343C116.887 134.212 116.906 134.082 116.943 133.954C117.155 133.471 117.716 133.25 118.199 133.462C118.42 133.558 118.595 133.733 118.691 133.954C118.729 134.082 118.747 134.212 118.744 134.343C118.75 134.374 118.729 134.402 118.697 134.409C118.691 134.409 118.685 134.409 118.679 134.409H116.956ZM121.361 137.465C121.358 137.521 121.402 137.571 121.458 137.574C121.461 137.574 121.467 137.574 121.47 137.574H124.202C125.486 137.574 126.383 137.023 126.738 135.923C126.869 135.512 126.932 135.103 126.932 133.904C126.932 132.705 126.866 132.296 126.738 131.885C126.383 130.782 125.486 130.234 124.202 130.234H121.47C121.414 130.231 121.367 130.274 121.361 130.331C121.361 130.334 121.361 130.34 121.361 130.343V137.465ZM122.947 136.091V131.711C122.941 131.68 122.962 131.652 122.994 131.645C123 131.645 123.006 131.645 123.012 131.645H123.844C124.579 131.645 125.022 131.86 125.206 132.455C125.28 132.67 125.324 132.951 125.324 133.901C125.324 134.851 125.28 135.132 125.206 135.346C125.022 135.938 124.579 136.157 123.844 136.157H123.012C122.981 136.163 122.953 136.141 122.947 136.107C122.947 136.104 122.947 136.1 122.947 136.091ZM130.374 137.689C131.206 137.72 132.01 137.403 132.599 136.814C132.639 136.776 132.639 136.714 132.602 136.674C132.599 136.671 132.592 136.664 132.586 136.661L131.873 135.991C131.829 135.938 131.776 135.948 131.723 135.991C131.402 136.3 130.969 136.465 130.524 136.456C130.047 136.505 129.598 136.219 129.446 135.764C129.411 135.67 129.39 135.571 129.38 135.471C129.374 135.44 129.396 135.412 129.427 135.406C129.433 135.406 129.44 135.406 129.446 135.406H132.608C132.667 135.412 132.72 135.371 132.726 135.315C132.726 135.309 132.726 135.303 132.726 135.3C132.757 134.758 132.698 134.216 132.552 133.692C132.25 132.773 131.452 132.225 130.296 132.225C129.184 132.225 128.352 132.764 128.05 133.705C127.922 134.11 127.866 134.533 127.876 134.957C127.866 135.378 127.929 135.798 128.059 136.2C128.365 137.141 129.187 137.692 130.374 137.689ZM129.446 134.409C129.415 134.415 129.387 134.393 129.38 134.362C129.38 134.356 129.38 134.35 129.38 134.343C129.377 134.212 129.396 134.082 129.433 133.957C129.645 133.474 130.206 133.253 130.689 133.465C130.91 133.561 131.084 133.736 131.181 133.957C131.218 134.082 131.237 134.212 131.234 134.346C131.237 134.378 131.218 134.406 131.187 134.412C131.181 134.412 131.175 134.412 131.169 134.412L129.446 134.409ZM138.643 137.574C138.68 137.577 138.708 137.549 138.711 137.512C138.711 137.496 138.708 137.477 138.696 137.465L136.87 134.303L138.468 132.455C138.493 132.434 138.499 132.396 138.477 132.371C138.465 132.356 138.443 132.346 138.425 132.349H137.041C136.96 132.349 136.882 132.39 136.836 132.458L135.334 134.306V130.343C135.337 130.287 135.293 130.237 135.237 130.234C135.234 130.234 135.228 130.234 135.225 130.234H133.929C133.873 130.231 133.823 130.274 133.82 130.331C133.82 130.334 133.82 130.34 133.82 130.343V137.465C133.817 137.521 133.86 137.568 133.916 137.574C133.92 137.574 133.923 137.574 133.929 137.574H135.225C135.281 137.577 135.328 137.534 135.334 137.477C135.334 137.474 135.334 137.468 135.334 137.465V136.032L135.873 135.362L137.038 137.468C137.066 137.534 137.128 137.577 137.203 137.577H138.643V137.574ZM144.104 137.574C144.16 137.577 144.207 137.534 144.213 137.477C144.213 137.474 144.213 137.468 144.213 137.465V134.172C144.213 133.029 143.587 132.228 142.431 132.228C141.911 132.197 141.409 132.418 141.082 132.823H141.07V130.34C141.073 130.284 141.029 130.237 140.973 130.231C140.97 130.231 140.964 130.231 140.961 130.231H139.664C139.608 130.228 139.559 130.271 139.555 130.327C139.555 130.331 139.555 130.337 139.555 130.34V137.462C139.552 137.518 139.596 137.568 139.652 137.571C139.655 137.571 139.661 137.571 139.664 137.571H140.961C141.017 137.574 141.063 137.53 141.07 137.474C141.07 137.471 141.07 137.465 141.07 137.462V134.462C141.07 133.888 141.372 133.511 141.889 133.511C142.428 133.511 142.699 133.888 142.699 134.462V137.462C142.696 137.518 142.739 137.568 142.796 137.571C142.799 137.571 142.805 137.571 142.808 137.571H144.104V137.574ZM147.709 137.692C148.811 137.692 149.674 137.175 149.977 136.225C150.101 135.817 150.16 135.39 150.151 134.963C150.16 134.536 150.104 134.11 149.977 133.698C149.674 132.751 148.811 132.231 147.712 132.231C146.609 132.231 145.746 132.751 145.444 133.698C145.319 134.107 145.26 134.533 145.272 134.96C145.263 135.387 145.319 135.814 145.444 136.222C145.743 137.172 146.609 137.692 147.709 137.692ZM147.709 136.418C147.341 136.443 147.005 136.209 146.899 135.857C146.818 135.568 146.783 135.262 146.802 134.96C146.786 134.658 146.818 134.356 146.899 134.063C147.067 133.617 147.565 133.39 148.011 133.558C148.244 133.645 148.428 133.829 148.516 134.063C148.597 134.353 148.631 134.658 148.612 134.96C148.631 135.262 148.597 135.565 148.516 135.857C148.413 136.209 148.076 136.443 147.709 136.418ZM153.827 135.889C154.217 137.088 155.155 137.692 156.438 137.692C157.681 137.692 158.588 137.088 158.996 136.063C159.024 136.026 159.015 135.973 158.977 135.948C158.968 135.942 158.955 135.935 158.943 135.932L157.768 135.403C157.722 135.375 157.656 135.387 157.628 135.437C157.625 135.443 157.622 135.449 157.619 135.456C157.454 135.957 156.98 136.294 156.454 136.287C155.94 136.315 155.479 135.976 155.354 135.477C155.267 135.206 155.236 134.948 155.236 133.901C155.236 132.854 155.27 132.592 155.354 132.324C155.482 131.826 155.943 131.49 156.454 131.514C156.983 131.505 157.454 131.845 157.619 132.346C157.638 132.399 157.697 132.427 157.75 132.409C157.756 132.405 157.762 132.402 157.768 132.399L158.943 131.87C158.99 131.86 159.018 131.82 159.012 131.773C159.008 131.761 159.005 131.748 158.996 131.739C158.585 130.714 157.678 130.109 156.438 130.109C155.155 130.109 154.214 130.714 153.827 131.913C153.665 132.387 153.622 132.767 153.622 133.901C153.622 135.032 153.665 135.415 153.827 135.889ZM162.183 137.689C163.283 137.689 164.149 137.172 164.448 136.222C164.573 135.814 164.632 135.387 164.622 134.96C164.635 134.533 164.576 134.107 164.448 133.698C164.146 132.751 163.283 132.231 162.183 132.231C161.08 132.231 160.22 132.751 159.915 133.698C159.79 134.107 159.731 134.533 159.744 134.96C159.734 135.387 159.79 135.814 159.915 136.222C160.217 137.172 161.083 137.692 162.183 137.689ZM162.183 136.415C161.815 136.44 161.479 136.206 161.373 135.854C161.292 135.565 161.258 135.259 161.276 134.957C161.258 134.655 161.292 134.353 161.373 134.06C161.541 133.614 162.04 133.387 162.485 133.555C162.719 133.642 162.903 133.826 162.99 134.06C163.071 134.35 163.105 134.655 163.09 134.957C163.108 135.259 163.074 135.561 162.99 135.854C162.887 136.209 162.551 136.443 162.183 136.415ZM173.408 137.571C173.464 137.574 173.511 137.53 173.517 137.474C173.517 137.471 173.517 137.465 173.517 137.462V134.172C173.517 133.016 172.882 132.228 171.651 132.228C171.034 132.2 170.436 132.44 170.009 132.885H170C169.676 132.44 169.146 132.191 168.598 132.228C168.078 132.197 167.576 132.418 167.249 132.823H167.236V132.455C167.239 132.399 167.196 132.349 167.14 132.346C167.137 132.346 167.13 132.346 167.127 132.346H165.831C165.775 132.343 165.728 132.387 165.722 132.443C165.722 132.446 165.722 132.452 165.722 132.455V137.465C165.719 137.521 165.763 137.571 165.819 137.574C165.822 137.574 165.828 137.574 165.831 137.574H167.127C167.183 137.577 167.233 137.534 167.236 137.477C167.236 137.474 167.236 137.468 167.236 137.465V134.465C167.236 133.892 167.539 133.515 168.056 133.515C168.595 133.515 168.866 133.892 168.866 134.465V137.465C168.863 137.521 168.906 137.571 168.962 137.574C168.965 137.574 168.972 137.574 168.975 137.574H170.271C170.327 137.577 170.374 137.534 170.38 137.477C170.38 137.474 170.38 137.468 170.38 137.465V134.465C170.38 133.892 170.67 133.515 171.19 133.515C171.729 133.515 172.009 133.892 172.009 134.465V137.465C172.006 137.521 172.05 137.571 172.106 137.574C172.109 137.574 172.112 137.574 172.118 137.574L173.408 137.571ZM176.237 139.515C176.293 139.518 176.34 139.474 176.346 139.418C176.346 139.415 176.346 139.409 176.346 139.406V137.085H176.355C176.676 137.512 177.197 137.739 177.726 137.689C178.536 137.739 179.275 137.219 179.496 136.437C179.636 135.957 179.698 135.459 179.68 134.957C179.701 134.459 179.639 133.957 179.496 133.477C179.278 132.692 178.536 132.172 177.726 132.225C177.197 132.175 176.676 132.405 176.355 132.829H176.346V132.449C176.349 132.393 176.306 132.343 176.249 132.34C176.246 132.34 176.243 132.34 176.237 132.34H174.941C174.885 132.337 174.835 132.381 174.832 132.437C174.832 132.44 174.832 132.446 174.832 132.449V139.403C174.829 139.459 174.872 139.506 174.928 139.512C174.932 139.512 174.935 139.512 174.941 139.512L176.237 139.515ZM177.24 136.415C176.876 136.44 176.542 136.206 176.439 135.854C176.358 135.565 176.327 135.259 176.343 134.957C176.327 134.655 176.362 134.353 176.439 134.06C176.605 133.614 177.097 133.387 177.539 133.552C177.776 133.639 177.96 133.826 178.047 134.06C178.128 134.353 178.159 134.655 178.144 134.957C178.159 135.259 178.125 135.561 178.047 135.854C177.947 136.213 177.611 136.446 177.24 136.415ZM185.044 137.571C185.1 137.574 185.147 137.53 185.15 137.474C185.15 137.471 185.15 137.465 185.15 137.462V134.119C185.15 132.814 184.537 132.231 182.829 132.231C182.144 132.2 181.465 132.381 180.885 132.751C180.835 132.779 180.817 132.845 180.848 132.895C180.851 132.898 180.851 132.901 180.854 132.904L181.34 133.758C181.362 133.801 181.412 133.82 181.455 133.798C181.465 133.795 181.474 133.789 181.48 133.779C181.823 133.546 182.231 133.427 182.645 133.443C183.477 133.443 183.714 133.67 183.714 134.156V134.35C183.72 134.381 183.699 134.409 183.667 134.415C183.661 134.415 183.655 134.415 183.649 134.415H182.72C181.424 134.415 180.552 134.945 180.552 136.097C180.552 137.21 181.362 137.696 182.29 137.696C182.832 137.745 183.365 137.534 183.727 137.122H183.736V137.468C183.733 137.524 183.776 137.574 183.832 137.577C183.836 137.577 183.842 137.577 183.845 137.577L185.044 137.571ZM182.745 136.555C182.25 136.555 181.991 136.371 181.991 136.004C181.991 135.593 182.284 135.412 182.92 135.412H183.655C183.686 135.406 183.714 135.427 183.72 135.459C183.72 135.465 183.72 135.471 183.72 135.477V135.832C183.717 136.322 183.393 136.558 182.745 136.555ZM191.026 137.574C191.082 137.577 191.132 137.534 191.135 137.477C191.135 137.474 191.135 137.468 191.135 137.465V134.172C191.135 133.029 190.509 132.228 189.353 132.228C188.833 132.197 188.331 132.418 188.004 132.823H187.995V132.455C187.998 132.399 187.954 132.349 187.898 132.346C187.895 132.346 187.889 132.346 187.886 132.346H186.59C186.534 132.343 186.484 132.387 186.481 132.443C186.481 132.446 186.481 132.452 186.481 132.455V137.465C186.478 137.521 186.521 137.571 186.577 137.574C186.58 137.574 186.587 137.574 186.59 137.574H187.886C187.942 137.577 187.989 137.534 187.995 137.477C187.995 137.474 187.995 137.468 187.995 137.465V134.465C187.995 133.892 188.297 133.515 188.814 133.515C189.353 133.515 189.624 133.892 189.624 134.465V137.465C189.621 137.521 189.665 137.571 189.721 137.574C189.724 137.574 189.727 137.574 189.733 137.574H191.026ZM193.141 139.515C194.079 139.515 194.543 139.169 194.986 138.013L197.098 132.452C197.12 132.387 197.089 132.343 197.011 132.343H195.671C195.609 132.346 195.553 132.39 195.54 132.452L194.568 135.474H194.55L193.506 132.452C193.494 132.39 193.437 132.346 193.375 132.343H191.995C191.93 132.343 191.886 132.387 191.908 132.452L193.849 137.309L193.709 137.699C193.646 138.035 193.338 138.269 192.995 138.238H192.768C192.712 138.235 192.662 138.278 192.659 138.334C192.659 138.337 192.659 138.344 192.659 138.347V139.406C192.655 139.462 192.699 139.512 192.755 139.515C192.758 139.515 192.765 139.515 192.768 139.515H193.141Z" fill="black"/>
<path d="M51.1358 92.7148C61.8717 92.7148 70.5764 101.491 70.5764 112.32C70.5764 123.147 61.8717 131.926 51.1358 131.926C40.3999 131.926 31.6953 123.15 31.6953 112.32C31.6922 101.491 40.3968 92.7148 51.1358 92.7148Z" fill="black"/>
<path fill-rule="evenodd" clip-rule="evenodd" d="M77.1469 113.829C77.1469 121.892 77.1469 121.54 77.5425 121.758C77.9569 121.898 78.4086 121.883 78.8136 121.714C79.1626 121.496 79.1626 121.319 79.1626 118.605V116.063H81.5708C85.3405 116.063 85.9076 115.845 86.6958 114.309L86.9575 113.826V108.57L86.7394 108.087C86.4465 107.539 86.0072 107.084 85.4683 106.773C84.7673 106.424 84.7673 106.424 80.8667 106.424H77.1406L77.1469 113.829ZM134.232 114.135V121.889L137.518 121.845L140.805 121.802L141.375 121.584C143.217 120.926 144.048 119.699 144.048 117.468C144.048 116.066 143.83 115.278 143.129 114.446L142.824 114.05L143.129 113.702C144.488 112.169 144.357 108.751 142.824 107.349C141.818 106.43 141.335 106.343 137.347 106.343H134.194L134.232 114.135ZM165.514 107.96C165.075 108.178 164.988 108.443 164.988 109.801V111.072H164.505C163.542 111.072 163.059 111.421 163.059 112.078C163.059 112.779 163.408 113.041 164.374 113.041H165.031V116.238C165.031 120.138 165.031 120.182 165.819 120.97C166.134 121.319 166.545 121.562 167.003 121.671C168.15 121.845 169.318 121.845 170.464 121.671C172.437 121.101 173.312 118.21 171.474 118.21C170.926 118.21 170.468 118.627 170.421 119.172C170.421 119.655 169.455 119.917 168.143 119.786C166.96 119.655 167.003 119.742 167.003 115.976V112.951H168.932C171.253 112.951 171.561 112.863 171.561 111.988C171.561 111.156 171.078 110.982 168.801 110.982H167.05V109.841C167.05 108.57 167.006 108.265 166.741 108C166.349 107.857 165.919 107.841 165.514 107.96ZM84.3747 108.57C84.9013 108.788 84.9449 108.966 84.9449 111.2C84.9449 114.178 85.2066 113.96 81.7017 113.96L79.1594 114.004V108.439H81.6144C83.761 108.439 84.113 108.483 84.3747 108.57ZM140.674 108.57C142.341 109.097 142.603 112.032 141.026 112.907C140.808 113.038 140.544 113.038 138.528 113.082H136.294V108.439H138.31C139.886 108.439 140.41 108.483 140.674 108.57ZM92.2164 111.2C91.6899 111.418 91.7335 111.2 91.6899 116.238C91.6462 121.845 91.6462 121.758 92.4781 121.889C93.5311 122.02 93.6183 121.845 93.6183 118.471L93.662 115.755L95.0639 114.571C96.8148 113.125 96.8615 113.125 97.6498 113.125C98.6561 113.125 99.0517 113.387 99.0517 114.178C99.0517 115.184 99.7963 115.755 100.541 115.406C101.329 115.01 101.198 113.041 100.323 112.032C99.7091 111.331 99.0517 111.113 97.5625 111.113C96.1606 111.113 95.9861 111.2 94.4533 112.471L93.7087 113.085L93.6651 112.471C93.5747 111.331 93.0046 110.848 92.2164 111.2ZM108.778 111.2C107.738 111.645 106.844 112.374 106.192 113.303C105.931 113.742 105.887 119.129 106.149 119.655C106.703 120.465 107.42 121.151 108.252 121.671C108.647 121.889 114.517 121.889 114.913 121.671C115.352 121.366 115.486 120.777 115.221 120.313C115.003 119.917 114.869 119.873 111.934 119.873C108.825 119.83 108.999 119.873 108.339 119.129C107.943 118.733 107.943 118.689 107.943 118.253V117.817H111.317C115.698 117.817 115.349 118.035 115.302 115.318C115.258 113.172 115.215 113.128 113.9 112.032C113.445 111.592 112.888 111.278 112.28 111.113C111.112 111.053 109.94 111.081 108.778 111.2ZM120.779 111.2C120.209 111.461 120.252 110.804 120.252 118.428C120.209 125.964 120.209 125.568 120.692 125.833C121.066 125.983 121.483 125.948 121.829 125.746C122.134 125.484 122.134 125.307 122.181 123.073L122.225 120.926L122.795 121.453C123.627 122.241 123.757 122.285 124.985 122.285C126.256 122.285 126.125 122.372 127.789 121.057C129.586 119.655 129.674 119.437 129.674 116.764C129.674 114.091 129.543 113.786 128.141 112.689C127.745 112.384 127.353 112.075 127.309 112.032C126.708 111.43 125.879 111.113 125.032 111.156C123.979 111.156 123.586 111.331 122.489 112.384L122.271 112.602L122.228 112.296C122.094 111.287 121.48 110.891 120.779 111.2ZM149.301 111.2C148.862 111.418 148.775 111.683 148.775 112.82C148.775 113.873 148.775 114.004 149.301 115.097C149.432 115.403 149.563 115.667 149.563 115.667C149.563 115.711 149.958 116.543 150.264 117.2C150.351 117.418 150.525 117.77 150.616 117.988C150.728 118.275 150.862 118.552 151.012 118.82C151.145 119.076 151.264 119.337 151.36 119.608C151.448 119.827 151.579 120.135 151.669 120.309C151.887 120.792 152.061 120.967 152.413 121.01C152.766 121.054 152.809 120.923 152.195 122.194C151.89 122.764 151.625 123.422 151.538 123.553L151.407 123.861H150.619C149.217 123.861 148.821 124.079 148.821 124.824C148.821 125.656 149.173 125.786 150.968 125.786C152.853 125.786 152.675 125.961 154.034 122.939C154.342 122.282 154.473 121.933 154.996 120.792L155.435 119.83C156.006 118.602 156.136 118.34 156.267 117.988C156.485 117.462 156.881 116.674 157.143 116.104C157.274 115.842 157.538 115.228 157.756 114.745L158.152 113.913V112.773C158.152 111.371 157.934 110.932 157.233 110.932C156.489 110.932 156.227 111.328 156.227 112.465C156.286 112.916 156.211 113.374 156.009 113.779C155.878 114.041 155.791 114.262 155.791 114.262L155.442 115.051L155.099 115.839C155.099 115.882 154.794 116.496 154.442 117.284C154.002 118.247 153.871 118.555 153.784 118.73C153.753 118.845 153.641 118.92 153.523 118.904C153.348 118.904 153.304 118.861 152.822 117.808C152.734 117.59 152.516 117.15 152.382 116.845C151.987 115.97 151.725 115.399 151.376 114.611C151.202 114.216 150.98 113.736 150.893 113.605C150.762 113.256 150.716 112.879 150.762 112.508C150.762 111.324 150.236 110.754 149.317 111.194M180.197 111.2C179.599 111.409 179.057 111.751 178.615 112.206C177.343 113.303 177.3 113.434 177.343 116.982C177.387 120.004 177.3 119.742 178.702 121.014C179.755 121.933 179.403 121.889 182.951 121.889C186.631 121.889 186.761 121.845 186.761 120.883C186.761 120.007 186.587 119.964 183.387 119.92C180.322 119.876 180.453 119.92 179.839 119.263C179.512 118.992 179.322 118.593 179.312 118.166V117.861H182.727C187.151 117.861 186.758 118.079 186.758 115.54V113.832L186.54 113.349C186.279 112.823 186.145 112.692 185.138 111.904C184.176 111.159 184.042 111.116 182.116 111.116C181.471 111.078 180.827 111.106 180.188 111.203M193.818 111.2C193.03 111.418 192.242 112.032 192.151 112.558C192.145 112.658 192.098 112.754 192.02 112.82C191.668 113.038 192.064 114.792 192.547 115.275C192.852 115.58 193.073 115.714 194.123 116.194C194.385 116.325 194.824 116.499 195.086 116.633C195.348 116.764 195.743 116.942 195.874 116.982C198.896 118.297 199.205 118.559 198.853 119.347C198.635 119.83 198.504 119.873 196.136 119.873C193.812 119.873 193.681 119.83 193.288 119.39C192.862 119.004 192.198 119.035 191.812 119.462C191.809 119.468 191.802 119.471 191.799 119.478L191.712 119.565C191.273 120.222 191.843 121.054 193.07 121.624L193.463 121.799H196.005C198.635 121.799 198.896 121.755 199.554 121.45C201.086 120.661 201.482 118.206 200.211 116.982C199.884 116.633 199.479 116.362 199.027 116.194L197.8 115.624C197.448 115.449 197.142 115.318 197.142 115.318C197.142 115.318 196.881 115.188 196.572 115.057L195.475 114.53C195.17 114.399 194.731 114.181 194.556 114.135C194.074 113.916 193.855 113.739 193.855 113.477C193.855 113.082 194.074 112.994 195.915 112.994C198.061 112.951 198.413 113.038 198.98 113.477C200.121 114.396 201.435 113.082 200.426 112.075C199.373 111.069 199.198 111.022 196.31 111.022C195.479 111.038 194.647 111.097 193.818 111.2ZM112.109 113.215C112.903 113.511 113.402 114.3 113.336 115.144V115.889H107.946V115.013C107.946 114.007 107.946 114.05 108.778 113.48C109.392 113.041 111.408 112.907 112.109 113.215ZM125.384 113.172C125.524 113.228 125.658 113.3 125.779 113.39C126.057 113.642 126.349 113.876 126.655 114.091C127.708 114.923 127.751 115.01 127.708 116.851C127.664 118.428 127.708 118.384 126.832 119.085C126.633 119.235 126.443 119.397 126.262 119.568C125.078 120.618 124.86 120.574 123.284 119.085C122.19 118.079 122.231 118.122 122.231 116.677C122.231 115.275 122.274 115.188 122.845 114.661C123.063 114.487 123.458 114.091 123.764 113.786C124.552 113.041 124.814 112.954 125.384 113.172ZM183.525 113.215C183.783 113.356 184.02 113.533 184.226 113.742L184.708 114.181L184.752 115.057L184.796 115.932H179.275L179.319 115.1C179.362 114.138 179.406 114.004 179.932 113.655C180.073 113.568 180.207 113.465 180.328 113.349C180.499 113.041 182.951 112.954 183.525 113.215ZM141.067 115.406C142.294 116.107 142.425 118.692 141.241 119.437C140.715 119.786 140.188 119.833 138.176 119.833H136.291V115.144L138.481 115.188L140.671 115.231L141.067 115.406Z" fill="black"/>
<path fill-rule="evenodd" clip-rule="evenodd" d="M53.3907 110.287C53.4344 116.857 53.3907 116.377 54.0045 117.645C56.5467 122.858 64.4756 121.15 64.8276 115.368C64.9959 112.225 62.5845 109.539 59.441 109.368C59.4254 109.368 59.4098 109.365 59.3943 109.365C58.0733 109.318 56.7773 109.717 55.7149 110.505L55.2756 110.81V104.414H53.4344L53.3907 110.287ZM44.4525 104.766C42.739 105.162 41.2934 106.302 40.5083 107.875C39.8945 109.103 39.8945 109.455 39.8945 115.764V120.976H41.7358V117.823C41.7358 116.069 41.7358 114.67 41.7794 114.67C41.9102 114.757 42.0878 114.845 42.2187 114.932C44.736 116.839 48.3219 116.34 50.2285 113.823C52.1165 111.33 51.6492 107.785 49.1849 105.863C47.8546 104.794 46.113 104.392 44.4525 104.766ZM46.5554 106.564C48.5773 107.109 49.7737 109.19 49.2285 111.209C48.6833 113.231 46.6021 114.427 44.5833 113.882C42.5614 113.337 41.365 111.256 41.9102 109.237C42.3589 107.573 43.8699 106.424 45.5927 106.433C45.9167 106.433 46.2407 106.477 46.5554 106.564ZM60.1357 111.296C62.2044 111.863 63.4226 114 62.8555 116.069C62.2885 118.138 60.1513 119.356 58.0826 118.789C56.014 118.222 54.7958 116.085 55.3628 114.016C55.8488 112.243 57.5125 111.053 59.3475 111.165C59.6154 111.165 59.8834 111.209 60.1357 111.296Z" fill="white"/>
</svg>
