<svg width="232" height="232" viewBox="0 0 232 232" fill="none" xmlns="http://www.w3.org/2000/svg">
<g clip-path="url(#clip0_1740_32360)">
<path d="M115.869 73.9655C112.486 73.9812 109.255 74.2698 106.412 74.7728C98.0378 76.2523 96.5173 79.3491 96.5173 85.06V92.6024H116.308V95.1166H96.5173H89.0903C83.3387 95.1166 78.3024 98.5736 76.7272 105.15C74.9101 112.688 74.8295 117.392 76.7272 125.263C78.1339 131.122 81.4934 135.297 87.245 135.297H94.0493V126.255C94.0493 119.723 99.701 113.961 106.412 113.961H126.18C131.682 113.961 136.075 109.431 136.075 103.905V85.06C136.075 79.6968 131.55 75.6679 126.18 74.7728C122.78 74.2069 119.252 73.9498 115.869 73.9655ZM105.167 80.0317C107.211 80.0317 108.88 81.7284 108.88 83.8145C108.88 85.8932 107.211 87.5742 105.167 87.5742C103.115 87.5742 101.453 85.8932 101.453 83.8145C101.453 81.7284 103.115 80.0317 105.167 80.0317Z" fill="black"/>
<path d="M138.543 95.1162V103.904C138.543 110.717 132.767 116.452 126.18 116.452H106.413C100.998 116.452 96.5176 121.086 96.5176 126.508V145.353C96.5176 150.716 101.181 153.871 106.413 155.409C112.677 157.251 118.684 157.584 126.18 155.409C131.162 153.967 136.075 151.064 136.075 145.353V137.81H116.308V135.296H136.075H145.97C151.722 135.296 153.865 131.284 155.865 125.263C157.931 119.064 157.843 113.102 155.865 105.15C154.444 99.424 151.729 95.1162 145.97 95.1162H138.543ZM127.425 142.839C129.477 142.839 131.139 144.52 131.139 146.598C131.139 148.684 129.477 150.381 127.425 150.381C125.381 150.381 123.712 148.684 123.712 146.598C123.712 144.52 125.381 142.839 127.425 142.839Z" fill="black"/>
</g>
<defs>
<clipPath id="clip0_1740_32360">
<rect width="82.6667" height="83.4048" fill="white" transform="translate(75.334 73.9648)"/>
</clipPath>
</defs>
</svg>
