<svg width="232" height="232" viewBox="0 0 232 232" fill="none" xmlns="http://www.w3.org/2000/svg">
<mask id="mask0_1740_32367" style="mask-type:alpha" maskUnits="userSpaceOnUse" x="19" y="89" width="54" height="53">
<path fill-rule="evenodd" clip-rule="evenodd" d="M45.8422 141.911C60.3357 141.911 72.0853 130.161 72.0853 115.668C72.0853 101.174 60.3357 89.4248 45.8422 89.4248C31.3487 89.4248 19.5991 101.174 19.5991 115.668C19.5991 130.161 31.3487 141.911 45.8422 141.911Z" fill="black"/>
</mask>
<g mask="url(#mask0_1740_32367)">
<path fill-rule="evenodd" clip-rule="evenodd" d="M46.0987 94.0366C46.6188 94.0367 47.1276 94.1885 47.5627 94.4736C47.9978 94.7586 48.3402 95.1645 48.548 95.6413C48.5672 95.6849 48.5987 95.7219 48.6386 95.7478C48.6785 95.7737 48.7251 95.7873 48.7727 95.7871C48.8069 95.7874 48.8406 95.78 48.8716 95.7656C48.9025 95.7513 48.9299 95.7302 48.9518 95.704C49.2026 95.4042 49.516 95.163 49.87 94.9972C50.224 94.8314 50.6099 94.7451 51.0008 94.7443C51.6418 94.7442 52.2615 94.9745 52.7469 95.3932C53.2323 95.8119 53.551 96.3911 53.645 97.0252C53.6516 97.0652 53.6683 97.1028 53.6933 97.1346C53.7184 97.1665 53.751 97.1915 53.7883 97.2073C53.8256 97.2232 53.8662 97.2294 53.9066 97.2253C53.9469 97.2213 53.9855 97.2072 54.0189 97.1843C54.4702 96.8681 55.0078 96.6985 55.5588 96.6982C55.9351 96.6989 56.3071 96.779 56.6503 96.9334C56.9934 97.0877 57.3002 97.3128 57.5503 97.5939C57.8005 97.875 57.9885 98.2057 58.102 98.5645C58.2155 98.9233 58.252 99.302 58.209 99.6758C58.2054 99.7161 58.2119 99.7566 58.2279 99.7937C58.244 99.8308 58.2691 99.8633 58.3009 99.8883C58.3327 99.9132 58.3703 99.9297 58.4102 99.9364C58.45 99.9431 58.491 99.9397 58.5292 99.9265C58.8238 99.8193 59.1349 99.7645 59.4484 99.7645C60.1318 99.7645 60.8148 100.025 61.3362 100.546C61.7045 100.915 61.9571 101.383 62.0629 101.893C62.1687 102.403 62.1232 102.933 61.9318 103.418C61.9178 103.456 61.9136 103.497 61.9194 103.537C61.9252 103.577 61.941 103.614 61.9653 103.647C61.9895 103.679 62.0215 103.705 62.0583 103.722C62.095 103.738 62.1354 103.746 62.1757 103.743C62.6831 103.697 63.193 103.798 63.6451 104.033C64.0971 104.267 64.4726 104.627 64.7269 105.068C64.9873 105.519 65.1101 106.037 65.0803 106.557C65.0504 107.077 64.8692 107.577 64.559 107.995C64.5355 108.029 64.5208 108.067 64.516 108.107C64.5113 108.147 64.5167 108.188 64.5319 108.226C64.547 108.263 64.5713 108.296 64.6025 108.322C64.6338 108.348 64.671 108.365 64.7107 108.373C65.2182 108.462 65.6892 108.695 66.067 109.045C66.4448 109.395 66.7134 109.847 66.8403 110.347C66.9673 110.846 66.9472 111.371 66.7825 111.859C66.6179 112.348 66.3156 112.778 65.9122 113.098C65.8809 113.124 65.8566 113.157 65.8416 113.195C65.8265 113.232 65.8212 113.273 65.8261 113.313C65.831 113.354 65.8459 113.392 65.8695 113.425C65.8932 113.458 65.9247 113.484 65.9612 113.502C66.4279 113.719 66.8221 114.066 67.0964 114.501C67.3706 114.936 67.5133 115.442 67.5072 115.956C67.5011 116.471 67.3465 116.973 67.0621 117.402C66.7776 117.831 66.3754 118.168 65.9037 118.374C65.7416 118.445 65.7054 118.665 65.8406 118.778C66.2359 119.109 66.5273 119.546 66.6797 120.038C66.832 120.531 66.8387 121.056 66.6991 121.552C66.5595 122.048 66.2794 122.493 65.8927 122.834C65.5059 123.174 65.029 123.396 64.5193 123.471C64.4794 123.478 64.4419 123.495 64.4101 123.52C64.3784 123.545 64.3534 123.578 64.3376 123.615C64.3218 123.652 64.3156 123.693 64.3195 123.733C64.3235 123.774 64.3375 123.812 64.3603 123.846C64.658 124.269 64.8264 124.77 64.8449 125.287C64.8635 125.804 64.7314 126.316 64.4648 126.759C64.1982 127.203 63.8084 127.56 63.343 127.786C62.8775 128.012 62.3563 128.099 61.8427 128.035C61.8045 128.035 61.767 128.045 61.7333 128.063C61.6995 128.081 61.6705 128.107 61.6487 128.138C61.6268 128.169 61.6126 128.206 61.6074 128.243C61.6021 128.281 61.6059 128.32 61.6185 128.356C61.7957 128.84 61.8292 129.365 61.715 129.867C61.6008 130.369 61.3437 130.828 60.9748 131.188C60.6058 131.547 60.1407 131.793 59.6356 131.894C59.1304 131.995 58.6067 131.949 58.1276 131.759C58.1007 131.748 58.0721 131.743 58.0431 131.743C58.0099 131.743 57.9771 131.75 57.9467 131.764C57.9163 131.777 57.889 131.797 57.8665 131.821C57.844 131.845 57.8267 131.874 57.8157 131.906C57.8047 131.937 57.8003 131.97 57.8027 132.003C57.8355 132.372 57.7912 132.744 57.6727 133.095C57.5541 133.446 57.3639 133.769 57.114 134.042C56.8642 134.316 56.5602 134.535 56.2213 134.684C55.8825 134.834 55.5162 134.912 55.1457 134.913C54.5712 134.913 54.0119 134.728 53.5499 134.387C53.5101 134.357 53.4618 134.341 53.4122 134.341C53.3556 134.341 53.3007 134.361 53.2571 134.397C53.2134 134.433 53.1837 134.483 53.173 134.538C53.0847 135.046 52.8514 135.517 52.5013 135.895C52.1512 136.274 51.6992 136.542 51.1997 136.669C50.7003 136.796 50.1748 136.776 49.6866 136.611C49.1984 136.446 48.7684 136.144 48.4483 135.74C48.4262 135.712 48.3982 135.69 48.3663 135.675C48.3343 135.66 48.2994 135.652 48.2641 135.652C48.2183 135.652 48.1733 135.664 48.1345 135.688C48.0956 135.713 48.0646 135.748 48.0449 135.789C47.8304 136.251 47.4883 136.642 47.059 136.916C46.6297 137.19 46.131 137.336 45.6216 137.336C45.1015 137.336 44.5927 137.184 44.1577 136.899C43.7227 136.614 43.3804 136.208 43.1727 135.731C43.1535 135.688 43.1219 135.651 43.0819 135.625C43.0419 135.599 42.9952 135.585 42.9476 135.586C42.9135 135.585 42.8797 135.593 42.8488 135.607C42.8178 135.621 42.7904 135.642 42.7685 135.668C42.5177 135.968 42.2044 136.209 41.8504 136.375C41.4964 136.541 41.1104 136.628 40.7195 136.628C40.0785 136.628 39.4589 136.398 38.9735 135.979C38.4881 135.561 38.1694 134.981 38.0753 134.347C38.0687 134.307 38.052 134.27 38.027 134.238C38.0019 134.206 37.9693 134.181 37.932 134.165C37.8947 134.149 37.854 134.143 37.8137 134.147C37.7734 134.151 37.7348 134.165 37.7014 134.188C37.2501 134.504 36.7125 134.674 36.1615 134.674C35.7851 134.674 35.4132 134.594 35.07 134.439C34.7268 134.285 34.4201 134.06 34.1699 133.778C33.9198 133.497 33.7318 133.167 33.6183 132.808C33.5048 132.449 33.4683 132.07 33.5113 131.696C33.5149 131.656 33.5085 131.616 33.4924 131.579C33.4764 131.542 33.4513 131.509 33.4195 131.484C33.3877 131.459 33.3502 131.443 33.3104 131.436C33.2706 131.43 33.2297 131.433 33.1915 131.446C32.8969 131.553 32.5858 131.608 32.2723 131.608C31.9217 131.609 31.5744 131.54 31.2504 131.406C30.9264 131.271 30.6321 131.075 30.3845 130.826C30.0162 130.458 29.7636 129.989 29.6577 129.479C29.5519 128.969 29.5975 128.439 29.7889 127.954C29.8029 127.916 29.8072 127.876 29.8013 127.836C29.7955 127.796 29.7796 127.758 29.7553 127.725C29.731 127.693 29.699 127.667 29.6622 127.651C29.6254 127.634 29.5849 127.627 29.5446 127.629C29.0372 127.675 28.5274 127.575 28.0754 127.34C27.6233 127.105 27.2478 126.746 26.9934 126.304C26.733 125.853 26.6102 125.336 26.6401 124.815C26.67 124.295 26.8513 123.795 27.1618 123.377C27.1852 123.344 27.1999 123.305 27.2046 123.265C27.2094 123.225 27.2039 123.184 27.1887 123.146C27.1736 123.109 27.1492 123.076 27.1179 123.05C27.0866 123.024 27.0494 123.007 27.0096 122.999C26.5021 122.911 26.0312 122.677 25.6534 122.327C25.2756 121.977 25.007 121.525 24.8801 121.026C24.7532 120.526 24.7733 120.001 24.9381 119.513C25.1028 119.025 25.4051 118.595 25.8085 118.275C25.8397 118.249 25.8639 118.216 25.8789 118.178C25.8938 118.14 25.8991 118.1 25.8943 118.059C25.8894 118.019 25.8745 117.981 25.8509 117.948C25.8274 117.915 25.796 117.889 25.7595 117.871C25.2925 117.654 24.8981 117.307 24.6237 116.872C24.3493 116.436 24.2065 115.931 24.2126 115.416C24.2187 114.901 24.3733 114.399 24.658 113.97C24.9426 113.541 25.3451 113.203 25.8171 112.998C25.9791 112.927 26.0153 112.708 25.8802 112.594C25.489 112.268 25.1994 111.836 25.0455 111.35C24.8916 110.864 24.8799 110.345 25.0117 109.852C25.1467 109.349 25.4258 108.896 25.8148 108.549C26.2038 108.203 26.6856 107.977 27.201 107.901C27.2408 107.894 27.2783 107.877 27.31 107.852C27.3417 107.827 27.3666 107.794 27.3824 107.757C27.3982 107.72 27.4045 107.679 27.4005 107.639C27.3966 107.599 27.3827 107.56 27.36 107.527C27.0636 107.105 26.8954 106.607 26.8758 106.092C26.8561 105.577 26.9857 105.068 27.249 104.625C27.5123 104.182 27.8981 103.825 28.3599 103.596C28.8217 103.368 29.3397 103.277 29.8516 103.336C29.8918 103.34 29.9323 103.334 29.9693 103.317C30.0064 103.301 30.0389 103.276 30.0638 103.245C30.0887 103.213 30.1053 103.175 30.112 103.136C30.1187 103.096 30.1154 103.055 30.1023 103.017C29.9271 102.538 29.8924 102.02 30.0021 101.522C30.1119 101.025 30.3616 100.569 30.7217 100.209C30.9693 99.9604 31.2636 99.7635 31.5876 99.6293C31.9116 99.4951 32.2589 99.4263 32.6096 99.4268C32.9434 99.4268 33.2777 99.4891 33.5932 99.6136C33.6201 99.6241 33.6487 99.6295 33.6776 99.6293C33.7108 99.6291 33.7435 99.622 33.7739 99.6086C33.8042 99.5952 33.8315 99.5757 33.8541 99.5513C33.8766 99.5269 33.8939 99.4982 33.9049 99.4669C33.9159 99.4356 33.9204 99.4024 33.918 99.3693C33.8851 99.0002 33.9293 98.6283 34.0478 98.2772C34.1663 97.9261 34.3565 97.6035 34.6064 97.3299C34.8562 97.0562 35.1603 96.8375 35.4992 96.6877C35.8381 96.5379 36.2045 96.4601 36.575 96.4595C37.1463 96.4595 37.7078 96.6428 38.1704 96.986C38.2035 97.0092 38.2419 97.0238 38.282 97.0284C38.3222 97.033 38.3629 97.0274 38.4004 97.0123C38.4378 96.9972 38.471 96.9729 38.4967 96.9418C38.5224 96.9106 38.54 96.8735 38.5477 96.8338C38.6557 96.214 38.979 95.6522 39.4606 95.2473C39.9422 94.8425 40.5512 94.6205 41.1804 94.6207C41.9998 94.6207 42.7698 95.0009 43.2725 95.6324C43.3193 95.6921 43.3876 95.7202 43.4566 95.7202C43.5024 95.7207 43.5473 95.7081 43.5861 95.6839C43.6249 95.6598 43.656 95.625 43.6758 95.5838C43.8901 95.1216 44.232 94.7304 44.6613 94.4562C45.0906 94.182 45.5893 94.0367 46.0987 94.0366Z" fill="white"/>
<path fill-rule="evenodd" clip-rule="evenodd" d="M55.7956 126.164C53.3867 126.164 53.576 122.764 55.7956 122.764C58.0151 122.764 58.2044 126.164 55.7956 126.164ZM35.8913 126.164C33.4824 126.164 33.6717 122.764 35.8913 122.764C38.1108 122.764 38.3001 126.164 35.8913 126.164ZM63.0728 113.601H62.2568C61.5626 113.601 60.8834 113.4 60.301 113.022C59.7185 112.644 59.2578 112.106 58.9744 111.473C58.6908 112.106 58.23 112.644 57.6475 113.022C57.065 113.4 56.3857 113.601 55.6915 113.601C54.9974 113.601 54.3181 113.4 53.7357 113.022C53.1533 112.644 52.6925 112.106 52.4091 111.473C52.1256 112.106 51.6648 112.644 51.0823 113.022C50.4998 113.4 49.8205 113.601 49.1262 113.601C48.4321 113.601 47.7528 113.4 47.1704 113.022C46.588 112.644 46.1273 112.106 45.8438 111.473C45.5604 112.106 45.0997 112.644 44.5172 113.022C43.9348 113.4 43.2556 113.601 42.5614 113.601C41.8672 113.601 41.1879 113.4 40.6054 113.022C40.0229 112.644 39.5621 112.106 39.2786 111.473C38.9951 112.106 38.5344 112.644 37.952 113.022C37.3695 113.4 36.6903 113.601 35.9961 113.601C35.302 113.601 34.6227 113.4 34.0403 113.022C33.4579 112.644 32.9971 112.106 32.7137 111.473C32.4302 112.106 31.9694 112.644 31.3869 113.022C30.8044 113.4 30.1251 113.601 29.4309 113.601H28.6242C27.4002 114.918 28.1766 116.03 31.1993 116.03V122.793C31.1993 129.148 38.5175 132.326 45.8357 132.326C53.1544 132.326 60.4725 129.148 60.4725 122.793V116.03C63.4979 116.03 64.2875 114.918 63.0728 113.601Z" fill="black"/>
<path fill-rule="evenodd" clip-rule="evenodd" d="M46.077 91.8438C45.0051 91.8438 43.9794 92.1793 43.1275 92.7702C42.0986 92.3695 40.9685 92.3081 39.9022 92.595C38.8825 92.8696 37.971 93.4493 37.29 94.2564C37.1003 94.2349 36.9096 94.2241 36.7187 94.224C35.8136 94.224 34.9195 94.4641 34.1329 94.9181C33.2194 95.4472 32.4893 96.2427 32.0404 97.1982C30.9491 97.3624 29.9396 97.8737 29.1613 98.6563C28.4149 99.4044 27.9151 100.363 27.7292 101.403C26.7201 101.846 25.8785 102.599 25.3264 103.553C24.7996 104.468 24.5652 105.522 24.6545 106.574C23.7931 107.264 23.1747 108.21 22.8894 109.276C22.6175 110.296 22.6639 111.375 23.0224 112.368C22.3691 113.257 22.0168 114.331 22.0171 115.434C22.0171 116.508 22.3539 117.534 22.9457 118.387C22.5445 119.414 22.4822 120.543 22.7679 121.609C23.0427 122.628 23.6224 123.539 24.4293 124.22C24.3079 125.317 24.54 126.423 25.0919 127.378C25.621 128.292 26.4169 129.023 27.3728 129.472C27.5394 130.562 28.0498 131.571 28.8296 132.35C29.5756 133.1 30.5347 133.602 31.5762 133.786C32.0195 134.794 32.7728 135.634 33.7266 136.184C34.6421 136.713 35.6976 136.949 36.7511 136.861C37.4401 137.72 38.3855 138.337 39.4495 138.621C40.471 138.896 41.5522 138.851 42.5473 138.492C43.435 139.143 44.5072 139.494 45.608 139.494C46.6794 139.494 47.7056 139.158 48.557 138.567C49.1488 138.798 49.7853 138.92 50.4406 138.92C51.1937 138.919 51.9375 138.754 52.6203 138.437C53.3031 138.119 53.9085 137.657 54.3941 137.081C54.5838 137.102 54.7748 137.113 54.9662 137.113C55.8714 137.113 56.7654 136.873 57.5516 136.419C58.4651 135.89 59.1952 135.095 59.6441 134.14C60.7355 133.975 61.7449 133.464 62.5232 132.682C63.2695 131.933 63.7692 130.975 63.9553 129.934C64.9643 129.491 65.806 128.738 66.3582 127.785C66.885 126.869 67.1195 125.815 67.0301 124.763C67.8729 124.089 68.4835 123.167 68.7761 122.128C69.0688 121.089 69.029 119.984 68.6621 118.969C69.3153 118.08 69.6676 117.006 69.6674 115.903C69.6674 114.83 69.3306 113.803 68.7389 112.951C69.1399 111.923 69.202 110.794 68.9162 109.728C68.6417 108.709 68.0622 107.798 67.2552 107.117C67.3742 106.044 67.1545 104.961 66.6267 104.019C66.0989 103.077 65.2895 102.324 64.3121 101.865C64.1455 100.775 63.635 99.767 62.8549 98.9876C62.1091 98.2375 61.1499 97.7358 60.1084 97.5512C59.6734 96.5637 58.9409 95.7367 58.0131 95.1856C57.0854 94.6345 56.0087 94.3869 54.9334 94.4773C54.2445 93.6181 53.2993 93.0013 52.2355 92.7165C51.214 92.4416 50.1328 92.4867 49.1377 92.8457C48.2499 92.1945 47.1775 91.8435 46.0765 91.8438M46.0774 94.3976C46.5885 94.3976 47.0884 94.5468 47.516 94.8268C47.9435 95.1069 48.2799 95.5056 48.4841 95.9742C48.503 96.017 48.5339 96.0533 48.5731 96.0788C48.6124 96.1042 48.6582 96.1177 48.705 96.1174C48.7385 96.1176 48.7717 96.1104 48.8022 96.0962C48.8326 96.0821 48.8596 96.0614 48.881 96.0356C49.1275 95.741 49.4354 95.504 49.7832 95.3411C50.131 95.1781 50.5102 95.0933 50.8942 95.0925C51.5241 95.0924 52.133 95.3188 52.6099 95.7302C53.0869 96.1416 53.4 96.7107 53.4924 97.3338C53.4989 97.3731 53.5152 97.4101 53.5398 97.4414C53.5644 97.4728 53.5965 97.4974 53.6331 97.513C53.6698 97.5286 53.7098 97.5347 53.7494 97.5307C53.7891 97.5267 53.8271 97.5128 53.8599 97.4903C54.3035 97.1796 54.8319 97.0129 55.3734 97.0127C55.7432 97.0133 56.1087 97.0919 56.446 97.2435C56.7832 97.3951 57.0847 97.6162 57.3305 97.8924C57.5764 98.1687 57.7611 98.4937 57.8726 98.8463C57.9841 99.1988 58.0199 99.571 57.9775 99.9383C57.974 99.9778 57.9804 100.018 57.9962 100.054C58.012 100.09 58.0366 100.122 58.0678 100.147C58.0991 100.171 58.1359 100.187 58.175 100.194C58.2141 100.2 58.2542 100.197 58.2917 100.184C58.5811 100.079 58.8867 100.025 59.1947 100.025C59.6226 100.025 60.0439 100.13 60.4219 100.331C60.8 100.531 61.1234 100.821 61.3639 101.175C61.6045 101.528 61.7549 101.936 61.8022 102.361C61.8495 102.786 61.7921 103.217 61.6351 103.615C61.6212 103.652 61.6169 103.692 61.6226 103.731C61.6282 103.771 61.6437 103.808 61.6676 103.84C61.6914 103.872 61.7229 103.897 61.7591 103.913C61.7953 103.93 61.8351 103.937 61.8747 103.934C62.3733 103.889 62.8743 103.988 63.3185 104.219C63.7627 104.449 64.1316 104.802 64.3816 105.236C64.6375 105.679 64.7582 106.188 64.7289 106.699C64.6996 107.21 64.5215 107.701 64.2166 108.112C64.1936 108.145 64.179 108.182 64.1743 108.222C64.1697 108.261 64.175 108.302 64.1899 108.338C64.2047 108.375 64.2286 108.408 64.2594 108.433C64.2901 108.459 64.3267 108.476 64.3659 108.483C64.8644 108.57 65.3272 108.8 65.6984 109.144C66.0696 109.488 66.3334 109.932 66.4581 110.422C66.5828 110.913 66.5631 111.429 66.4012 111.909C66.2394 112.388 65.9424 112.811 65.546 113.126C65.5154 113.151 65.4917 113.184 65.477 113.221C65.4623 113.257 65.4571 113.298 65.4619 113.337C65.4667 113.376 65.4813 113.414 65.5044 113.446C65.5275 113.479 65.5584 113.505 65.5942 113.522C66.0529 113.735 66.4404 114.076 66.71 114.504C66.9796 114.932 67.1198 115.428 67.1139 115.934C67.1079 116.44 66.956 116.933 66.6764 117.354C66.3969 117.776 66.0015 118.107 65.5379 118.309C65.3788 118.379 65.343 118.595 65.4761 118.706C65.8648 119.031 66.1513 119.461 66.3012 119.944C66.451 120.428 66.4577 120.945 66.3205 121.432C66.1833 121.92 65.908 122.357 65.5278 122.692C65.1476 123.026 64.6788 123.244 64.1778 123.318C64.1386 123.324 64.1016 123.341 64.0704 123.365C64.0391 123.39 64.0146 123.422 63.999 123.459C63.9834 123.495 63.9773 123.535 63.9812 123.575C63.9851 123.614 63.9989 123.652 64.0214 123.685C64.3126 124.099 64.4779 124.589 64.4973 125.095C64.5167 125.601 64.3893 126.101 64.1306 126.537C63.8718 126.972 63.4927 127.323 63.039 127.547C62.5853 127.772 62.0762 127.861 61.5733 127.802C61.5338 127.799 61.494 127.806 61.4577 127.821C61.4213 127.837 61.3895 127.862 61.365 127.893C61.3406 127.924 61.3243 127.961 61.3178 128C61.3112 128.039 61.3144 128.08 61.3273 128.117C61.4993 128.587 61.5333 129.096 61.4254 129.585C61.3175 130.074 61.072 130.521 60.7181 130.875C60.4749 131.119 60.1858 131.313 59.8675 131.445C59.5492 131.577 59.208 131.644 58.8635 131.644C58.5352 131.644 58.2069 131.582 57.8969 131.461C57.8705 131.45 57.8423 131.444 57.8138 131.444C57.7811 131.445 57.7489 131.452 57.719 131.465C57.6891 131.478 57.6623 131.497 57.6402 131.521C57.618 131.545 57.601 131.574 57.5903 131.604C57.5795 131.635 57.5752 131.668 57.5776 131.701C57.6222 132.199 57.5233 132.7 57.2926 133.144C57.0619 133.588 56.709 133.957 56.2755 134.207C55.8779 134.438 55.4264 134.559 54.9667 134.559C54.4023 134.559 53.8528 134.378 53.399 134.042C53.36 134.013 53.3125 133.997 53.2639 133.997C53.2082 133.997 53.1541 134.016 53.1112 134.052C53.0682 134.087 53.039 134.137 53.0285 134.191C52.9417 134.69 52.7124 135.153 52.3683 135.525C52.0243 135.896 51.5801 136.16 51.0894 136.285C50.5987 136.409 50.0824 136.39 49.6028 136.228C49.1231 136.065 48.7006 135.768 48.386 135.371C48.3643 135.344 48.3367 135.322 48.3053 135.308C48.2739 135.293 48.2396 135.285 48.2049 135.286C48.16 135.285 48.1159 135.297 48.0778 135.321C48.0397 135.345 48.0092 135.379 47.99 135.42C47.7771 135.878 47.4362 136.266 47.0083 136.536C46.5804 136.805 46.0836 136.946 45.5779 136.94C45.0721 136.934 44.5788 136.782 44.1573 136.502C43.7358 136.222 43.4041 135.827 43.2021 135.363C43.1833 135.32 43.1523 135.284 43.1131 135.259C43.0739 135.233 43.028 135.22 42.9813 135.22C42.9477 135.22 42.9145 135.227 42.8841 135.241C42.8536 135.255 42.8267 135.276 42.8052 135.301C42.5587 135.596 42.2508 135.833 41.903 135.996C41.5552 136.159 41.176 136.244 40.792 136.245C40.1622 136.245 39.5534 136.018 39.0764 135.607C38.5995 135.196 38.2863 134.627 38.1939 134.004C38.1875 133.964 38.1712 133.927 38.1467 133.896C38.1221 133.864 38.0899 133.84 38.0532 133.824C38.0165 133.808 37.9765 133.802 37.9368 133.806C37.8972 133.81 37.8592 133.824 37.8264 133.847C37.3828 134.158 36.8544 134.325 36.3128 134.325C35.9431 134.324 35.5776 134.245 35.2404 134.094C34.9032 133.942 34.6018 133.721 34.356 133.444C34.1102 133.168 33.9255 132.843 33.8139 132.491C33.7024 132.138 33.6665 131.766 33.7087 131.399C33.7123 131.359 33.706 131.319 33.6902 131.283C33.6745 131.246 33.6499 131.215 33.6186 131.19C33.5874 131.166 33.5505 131.149 33.5113 131.143C33.4722 131.136 33.432 131.14 33.3945 131.153C33.1051 131.258 32.7995 131.312 32.4915 131.312C31.8196 131.312 31.1485 131.056 30.6365 130.544C30.2745 130.182 30.0263 129.722 29.9223 129.221C29.8183 128.719 29.8631 128.198 30.0511 127.722C30.0649 127.685 30.0691 127.645 30.0634 127.606C30.0577 127.566 30.0422 127.529 30.0184 127.497C29.9945 127.466 29.9631 127.44 29.927 127.424C29.8908 127.407 29.8511 127.4 29.8115 127.403C29.313 127.448 28.812 127.349 28.3678 127.118C27.9236 126.888 27.5547 126.535 27.3046 126.101C27.0487 125.658 26.9279 125.149 26.9573 124.638C26.9866 124.127 27.1647 123.636 27.4696 123.224C27.4926 123.192 27.507 123.154 27.5117 123.115C27.5163 123.075 27.5109 123.035 27.4961 122.998C27.4812 122.962 27.4574 122.929 27.4267 122.904C27.396 122.878 27.3594 122.861 27.3204 122.854C26.8219 122.767 26.3593 122.537 25.9882 122.193C25.617 121.849 25.3533 121.405 25.2286 120.915C25.1039 120.424 25.1236 119.908 25.2853 119.429C25.4471 118.949 25.744 118.527 26.1403 118.212C26.1709 118.186 26.1946 118.154 26.2093 118.117C26.224 118.08 26.2292 118.04 26.2244 118C26.2196 117.961 26.2049 117.923 26.1818 117.891C26.1587 117.859 26.1279 117.833 26.0921 117.815C25.6334 117.602 25.246 117.261 24.9765 116.833C24.7069 116.405 24.5667 115.909 24.5727 115.403C24.5787 114.897 24.7306 114.404 25.0102 113.983C25.2898 113.561 25.6852 113.23 26.1488 113.028C26.3074 112.958 26.3432 112.742 26.2102 112.631C25.8216 112.306 25.5352 111.876 25.3855 111.393C25.2358 110.909 25.2291 110.392 25.3663 109.905C25.5035 109.417 25.7787 108.98 26.1588 108.646C26.5389 108.311 27.0075 108.094 27.5084 108.019C27.5476 108.013 27.5845 107.996 27.6157 107.971C27.6468 107.947 27.6713 107.915 27.6869 107.878C27.7025 107.842 27.7086 107.802 27.7048 107.762C27.7009 107.723 27.6872 107.685 27.6649 107.652C27.3736 107.238 27.2083 106.748 27.1889 106.242C27.1695 105.736 27.2969 105.236 27.5557 104.8C27.8144 104.365 28.1935 104.014 28.6472 103.79C29.101 103.565 29.61 103.476 30.1129 103.535C30.1525 103.538 30.1923 103.532 30.2287 103.516C30.2651 103.5 30.297 103.475 30.3215 103.444C30.346 103.413 30.3622 103.376 30.3687 103.337C30.3753 103.298 30.3719 103.257 30.3589 103.22C30.1869 102.75 30.1529 102.241 30.2607 101.752C30.3686 101.263 30.6139 100.815 30.9678 100.461C31.2111 100.218 31.5003 100.024 31.8186 99.8923C32.137 99.7605 32.4782 99.693 32.8228 99.6936C33.1511 99.6936 33.4794 99.7546 33.7893 99.8769C33.8166 99.8876 33.8447 99.8927 33.872 99.8927C33.9047 99.8925 33.9369 99.8856 33.9668 99.8724C33.9967 99.8592 34.0236 99.8401 34.0458 99.8161C34.0679 99.7921 34.085 99.7638 34.0958 99.733C34.1066 99.7022 34.111 99.6695 34.1086 99.6369C34.0638 99.1328 34.1657 98.6265 34.4019 98.179C34.6381 97.7314 34.9986 97.3617 35.4401 97.1142C35.8815 96.8668 36.3851 96.7522 36.8901 96.7843C37.3952 96.8163 37.8802 96.9937 38.2868 97.295C38.3261 97.3239 38.3736 97.3394 38.4224 97.3393C38.478 97.3396 38.532 97.3204 38.575 97.2851C38.618 97.2497 38.6473 97.2004 38.6577 97.1458C38.7449 96.6472 38.9744 96.1844 39.3184 95.8132C39.6625 95.442 40.1066 95.1782 40.5971 95.0535C41.0876 94.9288 41.6038 94.9486 42.0833 95.1104C42.5629 95.2722 42.9855 95.5692 43.3002 95.9656C43.3218 95.9928 43.3493 96.0147 43.3806 96.0296C43.4119 96.0445 43.4463 96.0521 43.481 96.0518C43.5688 96.0518 43.6558 96.0049 43.6967 95.917C43.9074 95.4631 44.2434 95.0789 44.6652 94.8096C45.087 94.5403 45.577 94.3976 46.0774 94.3976Z" fill="black"/>
</g>
<path fill-rule="evenodd" clip-rule="evenodd" d="M85.1115 126.484C85.4012 126.806 85.5457 127.219 85.5457 127.725C85.5457 128.23 85.3546 128.643 84.9725 128.965C84.5908 129.286 84.0985 129.447 83.4966 129.447H82.8713C81.7369 129.447 80.7009 129.154 79.7631 128.569C78.8254 127.983 78.0902 127.185 77.5577 126.174C77.0251 125.164 76.7588 124.027 76.7588 122.765V114.257H75.1611C74.6748 114.257 74.2815 114.119 73.9802 113.844C73.6793 113.568 73.5288 113.224 73.5288 112.81C73.5288 112.351 73.6793 111.984 73.9802 111.708C74.2815 111.433 74.6748 111.295 75.1611 111.295H76.7588V106.334C76.7588 105.829 76.9208 105.416 77.2452 105.094C77.5692 104.773 77.9859 104.612 78.4954 104.612C79.0049 104.612 79.4216 104.773 79.7456 105.094C80.07 105.416 80.232 105.829 80.232 106.334V111.294H83.1842C83.6702 111.294 84.0638 111.432 84.3648 111.708C84.666 111.983 84.8165 112.351 84.8165 112.81C84.8165 113.223 84.666 113.568 84.3648 113.843C84.0638 114.119 83.6702 114.257 83.1842 114.257H80.232V122.764C80.232 123.683 80.4867 124.452 80.9958 125.072C81.5053 125.692 82.1306 126.002 82.8713 126.002H84.0523C84.469 126.002 84.8221 126.163 85.1115 126.484ZM102.13 111.725C103.577 112.563 104.723 113.711 105.568 115.17C106.414 116.628 106.836 118.252 106.836 120.044V127.725C106.836 128.23 106.668 128.649 106.332 128.982C105.997 129.315 105.574 129.481 105.065 129.481C104.555 129.481 104.133 129.315 103.797 128.982C103.461 128.649 103.293 128.23 103.293 127.725V126.45C102.493 127.43 101.485 128.218 100.341 128.758C99.1834 129.309 97.9331 129.584 96.5902 129.584C94.9232 129.584 93.4123 129.171 92.0578 128.345C90.7033 127.518 89.6382 126.375 88.8625 124.917C88.0871 123.459 87.699 121.835 87.699 120.043C87.699 118.253 88.1158 116.628 88.9493 115.17C89.7831 113.711 90.935 112.563 92.4053 111.725C93.8756 110.887 95.502 110.468 97.2848 110.468C99.0679 110.468 100.683 110.887 102.13 111.725ZM100.428 125.641C101.366 125.078 102.101 124.309 102.633 123.333C103.166 122.357 103.432 121.26 103.432 120.044C103.432 118.826 103.166 117.724 102.633 116.737C102.101 115.749 101.366 114.974 100.428 114.412C99.4902 113.849 98.4426 113.568 97.2848 113.568C96.1273 113.568 95.0793 113.849 94.1419 114.412C93.2041 114.974 92.463 115.749 91.9189 116.737C91.3748 117.724 91.1026 118.826 91.1026 120.043C91.1026 121.26 91.3748 122.357 91.9189 123.333C92.463 124.309 93.2041 125.078 94.1419 125.641C95.0793 126.203 96.1273 126.484 97.2848 126.484C98.4426 126.484 99.4902 126.203 100.428 125.641ZM113.365 128.861C111.976 128.379 110.888 127.747 110.1 126.967C109.8 126.668 109.649 126.312 109.649 125.899C109.649 125.348 109.881 124.9 110.344 124.556C110.784 124.234 111.189 124.073 111.559 124.073C112.023 124.073 112.462 124.28 112.879 124.693C113.319 125.175 113.979 125.595 114.859 125.951C115.739 126.306 116.676 126.484 117.672 126.484C118.992 126.484 120.017 126.267 120.746 125.83C121.475 125.394 121.84 124.808 121.84 124.074C121.84 123.362 121.481 122.77 120.763 122.3C120.045 121.829 118.83 121.433 117.116 121.111C112.671 120.262 110.448 118.447 110.448 115.669C110.448 114.544 110.784 113.591 111.455 112.81C112.127 112.029 113.006 111.444 114.095 111.054C115.183 110.663 116.341 110.468 117.568 110.468C119.073 110.468 120.422 110.709 121.614 111.191C122.806 111.674 123.75 112.339 124.445 113.189C124.746 113.557 124.896 113.924 124.896 114.292C124.896 114.682 124.699 115.038 124.306 115.359C124.051 115.543 123.727 115.635 123.333 115.635C122.731 115.635 122.187 115.417 121.701 114.98C121.122 114.452 120.508 114.079 119.86 113.861C119.212 113.643 118.424 113.534 117.498 113.534C116.433 113.534 115.559 113.711 114.876 114.067C114.193 114.423 113.851 114.923 113.851 115.566C113.851 116.025 113.967 116.41 114.199 116.72C114.431 117.03 114.87 117.317 115.519 117.581C116.167 117.845 117.105 118.103 118.332 118.356C120.856 118.861 122.644 119.561 123.698 120.457C124.751 121.352 125.278 122.512 125.278 123.936C125.278 124.992 124.989 125.951 124.41 126.812C123.831 127.673 122.98 128.35 121.857 128.844C120.734 129.338 119.385 129.584 117.811 129.584C116.236 129.584 114.755 129.343 113.365 128.861ZM143.269 128C143.269 128.505 143.06 128.93 142.644 129.275C142.297 129.55 141.926 129.688 141.532 129.688C141.023 129.688 140.606 129.481 140.282 129.068L133.683 120.973L131.947 122.489V127.759C131.947 128.264 131.79 128.672 131.478 128.982C131.165 129.292 130.754 129.447 130.245 129.447C129.735 129.447 129.324 129.292 129.012 128.982C128.699 128.672 128.543 128.264 128.543 127.759V104.234C128.543 103.729 128.699 103.321 129.012 103.011C129.324 102.701 129.735 102.546 130.245 102.546C130.754 102.546 131.165 102.701 131.478 103.011C131.79 103.321 131.947 103.728 131.947 104.234V118.253L140.386 110.778C140.687 110.479 141.046 110.33 141.463 110.33C141.949 110.33 142.343 110.514 142.644 110.881C142.945 111.18 143.095 111.536 143.095 111.949C143.095 112.431 142.91 112.822 142.539 113.12L136.149 118.769L142.887 126.967C143.142 127.242 143.269 127.587 143.269 128ZM158.811 111.725C160.258 112.563 161.404 113.711 162.249 115.17C163.094 116.628 163.517 118.252 163.517 120.044V127.725C163.517 128.23 163.349 128.649 163.014 128.982C162.678 129.315 162.255 129.481 161.746 129.481C161.236 129.481 160.814 129.315 160.478 128.982C160.142 128.649 159.975 128.23 159.975 127.725V126.45C159.174 127.429 158.166 128.218 157.022 128.758C155.865 129.309 154.614 129.584 153.271 129.584C151.604 129.584 150.094 129.171 148.739 128.345C147.385 127.518 146.319 126.375 145.544 124.917C144.768 123.459 144.38 121.835 144.38 120.043C144.38 118.253 144.797 116.628 145.63 115.17C146.464 113.711 147.616 112.563 149.086 111.725C150.556 110.887 152.183 110.468 153.966 110.468C155.749 110.468 157.364 110.887 158.811 111.725ZM157.109 125.641C158.047 125.078 158.782 124.309 159.315 123.333C159.847 122.357 160.114 121.26 160.114 120.044C160.114 118.826 159.847 117.724 159.315 116.737C158.782 115.749 158.047 114.974 157.109 114.412C156.171 113.849 155.124 113.568 153.966 113.568C152.808 113.568 151.761 113.849 150.823 114.412C149.885 114.974 149.144 115.749 148.6 116.737C148.056 117.724 147.784 118.826 147.784 120.043C147.784 121.26 148.056 122.357 148.6 123.333C149.144 124.309 149.885 125.078 150.823 125.641C151.761 126.203 152.808 126.484 153.966 126.484C155.124 126.484 156.171 126.203 157.109 125.641ZM185.259 103.028C185.583 103.35 185.745 103.774 185.745 104.302V120.009C185.745 121.8 185.322 123.425 184.477 124.883C183.632 126.341 182.486 127.489 181.039 128.327C179.592 129.165 177.977 129.584 176.194 129.584C174.411 129.584 172.784 129.165 171.314 128.327C169.844 127.489 168.692 126.341 167.858 124.883C167.025 123.425 166.608 121.8 166.608 120.009C166.608 118.218 166.996 116.594 167.772 115.135C168.547 113.677 169.612 112.535 170.967 111.708C172.321 110.881 173.832 110.468 175.499 110.468C176.842 110.468 178.092 110.744 179.25 111.295C180.394 111.835 181.402 112.623 182.203 113.602V104.302C182.203 103.774 182.37 103.35 182.706 103.028C183.042 102.707 183.464 102.546 183.974 102.546C184.506 102.546 184.935 102.707 185.259 103.028ZM179.337 125.641C180.275 125.078 181.01 124.303 181.543 123.316C182.075 122.328 182.341 121.226 182.341 120.009C182.341 118.792 182.075 117.696 181.543 116.72C181.01 115.744 180.275 114.974 179.337 114.412C178.399 113.849 177.352 113.568 176.194 113.568C175.036 113.568 173.988 113.849 173.051 114.412C172.113 114.974 171.372 115.744 170.828 116.72C170.284 117.696 170.012 118.792 170.012 120.009C170.012 121.226 170.284 122.328 170.828 123.315C171.372 124.303 172.113 125.078 173.051 125.641C173.988 126.203 175.036 126.484 176.194 126.484C177.352 126.484 178.399 126.203 179.337 125.641ZM207.383 120.819C207.081 121.106 206.7 121.249 206.236 121.249H193.038C193.293 122.856 194.028 124.154 195.244 125.141C196.46 126.129 197.947 126.622 199.707 126.622C200.402 126.622 201.125 126.496 201.877 126.243C202.63 125.991 203.249 125.681 203.736 125.313C204.06 125.061 204.442 124.934 204.882 124.934C205.322 124.934 205.669 125.05 205.924 125.279C206.341 125.623 206.549 126.014 206.549 126.45C206.549 126.863 206.364 127.208 205.993 127.483C205.206 128.104 204.228 128.608 203.058 128.999C201.889 129.389 200.772 129.584 199.707 129.584C197.808 129.584 196.106 129.177 194.601 128.362C193.097 127.546 191.921 126.416 191.076 124.969C190.231 123.522 189.808 121.88 189.808 120.043C189.808 118.206 190.208 116.559 191.007 115.101C191.806 113.643 192.917 112.506 194.341 111.691C195.765 110.875 197.38 110.468 199.186 110.468C200.969 110.468 202.508 110.858 203.805 111.639C205.102 112.42 206.097 113.511 206.792 114.911C207.486 116.312 207.834 117.919 207.834 119.733C207.834 120.17 207.683 120.532 207.383 120.819ZM195.07 114.808C194.017 115.727 193.351 116.955 193.073 118.494H204.639C204.43 116.955 203.851 115.727 202.902 114.808C201.953 113.89 200.714 113.43 199.186 113.43C197.496 113.43 196.124 113.89 195.07 114.808Z" fill="black"/>
</svg>
