<svg width="232" height="232" viewBox="0 0 232 232" fill="none" xmlns="http://www.w3.org/2000/svg">
<g clip-path="url(#clip0_1740_32361)">
<path d="M161.189 112.822L148.305 98.0003L161.189 83.1788L142.101 79.3539L144.01 59.7512L126.354 67.401L116.333 50.667L106.312 67.401L88.6555 59.7512L90.5643 79.3539L71.4766 83.1788L84.3608 98.0003L71.4766 112.822L90.5643 116.647L88.6555 136.249L106.312 128.6L116.333 145.334L126.354 128.6L144.01 136.249L142.101 116.647" fill="black"/>
<path d="M127.309 83.1792C127.309 83.1792 123.014 86.0479 116.334 86.0479C109.653 86.0479 105.836 83.1792 105.836 83.1792C105.836 83.1792 106.79 87.9603 105.358 94.1758C103.927 98.0007 102.018 100.869 99.1548 103.26C99.1548 103.26 104.881 104.216 109.176 107.085C113.471 110.432 116.334 116.169 116.334 116.169C116.334 116.169 118.72 110.432 123.014 107.563C127.309 104.216 133.513 103.738 133.513 103.738C133.513 103.738 129.218 98.4789 127.309 94.1758C125.4 89.3947 127.309 83.1792 127.309 83.1792ZM121.106 104.216C118.243 106.129 116.334 109.475 116.334 109.475L111.562 104.216L105.358 101.826C105.358 101.826 107.744 98.4789 108.699 95.1321C109.653 93.2196 109.653 90.829 109.653 88.4385C109.653 88.4385 112.993 89.8728 116.334 89.8728C119.197 89.8728 123.014 88.4385 123.014 88.4385C123.014 88.4385 122.06 92.2634 123.492 95.6102C124.446 98.4789 127.309 101.826 127.309 101.826L121.106 104.216ZM134.467 91.3071C133.513 87.9603 136.853 69.792 136.853 69.792C136.853 69.792 124.446 78.3981 115.857 78.3981C107.267 78.3981 95.8145 69.792 95.8145 69.792C95.8145 69.792 99.632 82.7011 97.2461 91.3071C95.3373 99.4351 83.4075 108.997 83.4075 108.997C83.4075 108.997 98.6776 109.475 104.404 113.779C110.607 117.603 116.334 132.903 116.334 132.903C116.334 132.903 123.969 116.169 127.309 113.779C130.65 111.388 149.26 108.519 149.26 108.519C149.26 108.519 135.899 95.1321 134.467 91.3071ZM125.4 110.91C119.197 114.735 116.334 124.297 116.334 124.297C116.334 124.297 111.562 113.779 106.79 110.432C102.018 107.085 91.5198 106.129 91.5198 106.129C91.5198 106.129 99.632 99.4351 101.541 92.7415C103.45 86.526 101.064 76.9637 101.064 76.9637C101.064 76.9637 109.653 82.223 115.857 82.223C122.537 82.223 131.604 76.9637 131.604 76.9637C131.604 76.9637 128.741 87.0041 131.127 92.7415C133.036 98.957 141.148 106.129 141.148 106.129C141.148 106.129 131.604 106.607 125.4 110.91Z" fill="white"/>
</g>
<path d="M94.6388 161.825L91.2374 174H88.3593L86.0743 165.331L83.6846 174L80.8239 174.017L77.5447 161.825H80.1611L82.3066 171.279L84.7835 161.825H87.5046L89.842 171.227L92.0049 161.825H94.6388ZM100.524 174.157C99.5941 174.157 98.7568 173.953 98.0126 173.546C97.2683 173.128 96.6811 172.541 96.2508 171.785C95.8322 171.029 95.6229 170.157 95.6229 169.168C95.6229 168.18 95.838 167.308 96.2683 166.552C96.7101 165.796 97.309 165.215 98.0649 164.808C98.8208 164.389 99.6638 164.18 100.594 164.18C101.524 164.18 102.368 164.389 103.123 164.808C103.879 165.215 104.472 165.796 104.903 166.552C105.344 167.308 105.565 168.18 105.565 169.168C105.565 170.157 105.339 171.029 104.885 171.785C104.443 172.541 103.839 173.128 103.071 173.546C102.315 173.953 101.466 174.157 100.524 174.157ZM100.524 172.029C100.966 172.029 101.379 171.924 101.763 171.715C102.158 171.494 102.472 171.168 102.705 170.738C102.937 170.308 103.054 169.785 103.054 169.168C103.054 168.25 102.809 167.546 102.321 167.058C101.844 166.558 101.257 166.308 100.559 166.308C99.8615 166.308 99.2743 166.558 98.7975 167.058C98.3323 167.546 98.0998 168.25 98.0998 169.168C98.0998 170.087 98.3265 170.796 98.7801 171.296C99.2452 171.785 99.8266 172.029 100.524 172.029ZM109.799 161.092V174H107.357V161.092H109.799ZM116.642 166.343H114.95V174H112.473V166.343H111.374V164.337H112.473V163.848C112.473 162.662 112.81 161.79 113.485 161.232C114.159 160.674 115.177 160.412 116.537 160.447V162.505C115.944 162.493 115.531 162.592 115.299 162.802C115.066 163.011 114.95 163.389 114.95 163.935V164.337H116.642V166.343ZM120.667 165.837C120.981 165.325 121.388 164.924 121.888 164.633C122.399 164.342 122.981 164.197 123.632 164.197V166.761H122.986C122.219 166.761 121.638 166.941 121.242 167.302C120.858 167.662 120.667 168.29 120.667 169.186V174H118.225V164.337H120.667V165.837ZM124.649 169.133C124.649 168.157 124.841 167.29 125.224 166.534C125.62 165.779 126.149 165.197 126.812 164.79C127.486 164.383 128.236 164.18 129.062 164.18C129.783 164.18 130.411 164.325 130.946 164.616C131.492 164.906 131.928 165.273 132.254 165.715V164.337H134.713V174H132.254V172.587C131.94 173.041 131.504 173.419 130.946 173.721C130.399 174.012 129.765 174.157 129.044 174.157C128.23 174.157 127.486 173.948 126.812 173.529C126.149 173.11 125.62 172.523 125.224 171.767C124.841 171 124.649 170.122 124.649 169.133ZM132.254 169.168C132.254 168.575 132.138 168.069 131.905 167.651C131.672 167.22 131.359 166.895 130.963 166.674C130.568 166.441 130.143 166.325 129.69 166.325C129.236 166.325 128.818 166.436 128.434 166.656C128.05 166.877 127.736 167.203 127.492 167.633C127.259 168.052 127.143 168.552 127.143 169.133C127.143 169.715 127.259 170.226 127.492 170.668C127.736 171.099 128.05 171.43 128.434 171.663C128.829 171.895 129.248 172.011 129.69 172.011C130.143 172.011 130.568 171.901 130.963 171.68C131.359 171.448 131.672 171.122 131.905 170.703C132.138 170.273 132.254 169.761 132.254 169.168ZM149.099 164.197C150.285 164.197 151.239 164.563 151.96 165.296C152.693 166.017 153.059 167.029 153.059 168.331V174H150.617V168.662C150.617 167.907 150.425 167.331 150.041 166.936C149.657 166.529 149.134 166.325 148.471 166.325C147.808 166.325 147.279 166.529 146.884 166.936C146.5 167.331 146.308 167.907 146.308 168.662V174H143.866V168.662C143.866 167.907 143.674 167.331 143.291 166.936C142.907 166.529 142.384 166.325 141.721 166.325C141.046 166.325 140.511 166.529 140.116 166.936C139.732 167.331 139.54 167.907 139.54 168.662V174H137.098V164.337H139.54V165.505C139.854 165.098 140.256 164.778 140.744 164.546C141.244 164.313 141.791 164.197 142.384 164.197C143.14 164.197 143.814 164.36 144.407 164.685C145 164.999 145.459 165.453 145.785 166.046C146.099 165.488 146.553 165.04 147.146 164.703C147.75 164.366 148.402 164.197 149.099 164.197Z" fill="black"/>
<defs>
<clipPath id="clip0_1740_32361">
<rect width="90.6667" height="94.6667" fill="white" transform="translate(71 50.667)"/>
</clipPath>
</defs>
</svg>
